<?xml version="1.0" encoding="UTF-8"?>
<svg width="60" height="37" version="1.1" viewBox="0 0 15.875 9.7895833" xmlns="http://www.w3.org/2000/svg">
 <g transform="translate(-14.48 -48.707)">
  <rect x="14.5" y="48.727" width="15.834" height="9.749" fill="#fff" style="paint-order:normal"/>
  <g transform="matrix(.016414 0 0 .016414 14.843 51.652)" fill-rule="evenodd">
   <g fill="#211e1e">
    <path d="m287.14 125.69c9.9883-8.3711 9.875-23.562 3.0195-27.926-6.8555-4.3633-22.359-0.88281-27.41 11.602-5.0469 12.484-5.457 20.094-8.2188 26.887 5.7812-0.42579 22.617-2.1914 32.609-10.562zm-65.363 48.086c9.8047-29.785 19.145-60.008 26.191-91.184 5.5 0 11.773 0.13281 17.27 0.13281l-2.0742 11.77c13.957-9.0547 23.148-11.402 32.301-10.652 33.094 2.7031 15.301 46.184-2.1875 56.633-10.262 6.1367-24.164 8.8711-43.367 6.1406-2.2656 9.0547-4.5273 18.109-6.7891 27.16h-21.344"/>
    <path d="m346.28 104.97c-8.6875 8.3672-8.5898 23.562-2.625 27.926 5.9609 4.3633 19.449 0.88281 23.84-11.602 4.3945-12.48 4.75-20.094 7.1523-26.887-5.0273 0.42578-19.68 2.1953-28.367 10.563zm37.293 43.273c-6.2266 0-11.672 0.12891-17.895 0.12891l1.1602-13.488c-12.797 12.094-33.539 20.086-43.055 8.6914-13.035-17.809-0.6875-40.969 14.004-50.48 16.305-10.562 37.953-10.016 59.527-10.473-7.7227 21.465-12.91 43.473-13.742 65.621"/>
    <path d="m423.46 104.97c-8.6914 8.3672-8.5938 23.562-2.6289 27.926 5.9648 4.3633 19.453 0.88281 23.844-11.602 4.3945-12.48 4.75-20.094 7.1523-26.887-5.0273 0.42578-19.676 2.1953-28.367 10.563zm-32.805 69.309 3.1328-16.645c13.906 4.5039 25.98 6.6719 35.051 2.1211 7.0547-3.5391 12.301-11.145 15.18-24.871-12.793 12.094-33.539 20.086-43.051 8.6914-13.039-17.809-0.69141-40.969 14-50.48 16.305-10.562 37.957-10.016 59.531-10.473-6.6836 18.566-6.8086 47.699-15.68 68.43-4.6797 10.945-12.551 17.973-21.969 21.996-13.77 5.875-30.859 5.3359-46.195 1.2305"/>
   </g>
   <path d="m637.19 104.97c-8.6836 8.3672-8.5898 23.562-2.6289 27.926 5.9688 4.3633 19.453 0.88281 23.848-11.602 4.3906-12.48 4.7461-20.094 7.1523-26.887-5.0312 0.42578-19.68 2.1953-28.371 10.563zm-159.38 26.918c-2.0781 4.4883-4.4102 9.2383-6.4805 13.727 25.305 5.5078 44.68 2.1836 52.32-5.957 7.4648-9.207 6.2148-19.629-6.7344-27.199-2.7578-1.918-10.562-5.7852-10.359-10.359 0.36718-10.41 16.195-7.9336 25.91-4.9219l3.0977-14.25c-6.7891-1.5742-15.41-2.043-22.336-1.3633-8.4297 0.82422-17.504 4.4688-24.539 11.465-5.4648 5.6758-6.5898 13.32-4.5898 17.973 2.4023 5.582 10.195 7.9258 14.172 10.258 6.6484 3.0977 10.609 5.4375 9.4805 10.145-0.94531 3.957-5.7656 7.1914-14.387 5.6523-5.3555-0.95703-11.613-2.8633-15.555-5.168zm83.273-21.758c3.125-6.918 8.4141-13.914 19.168-15.285 8.4648-0.82031 9.3672 8.1016 4.3945 11.535-9.0312 3.8906-10.039-1.4453-23.562 3.75zm35.094 23.051c-0.51562 4.3164-2.0742 8.6328-2.5859 12.953-20.117 2.7617-41.703 7.418-52.844-8.2891-11.531-22.234 5.1016-42.602 19.684-50.25 25.605-11.484 43.387-5.6367 47.145 5.6992 7.5898 19.879-15.883 32.996-49.734 29.008-3.5273 17.285 14.133 17.027 38.336 10.879zm106.2-50.77c6.2148 0.17578 12.434 0.34766 18.648 0.51953-3.2852 13.812-8.6367 27.109-11.914 40.926-4.8594 16.805 15.18 15.059 23.828 4.6602 7.6992-13.535 11.145-29.781 16.062-46.105h18.648c-7.0391 21.586-13.172 43.172-16.062 64.758-5.5234-0.34765-12.09-0.6914-17.609-1.0352 0.17188-3.457 0.33985-6.9102 0.51563-10.363-18.684 17.164-49.438 21.695-45.59-7.2539 2.2109-15.367 8.4492-30.734 13.473-46.105zm60.609 63.723c8.332-21.16 13.938-48.164 18.129-63.203h15.027l-0.52343 13.469c6.5625-9.0625 18.48-14.07 30.57-13.469l-5.6992 17.098c-15.027-1.9727-25.621 10.051-31.477 29.922-1.4922 5.0625-2.6836 10.637-3.5508 16.613zm76.676-55.172c-19 12.73-26.621 34.187-17.012 47.918 9.6055 13.73 32.801 14.543 51.793 1.8125 19-12.727 26.617-34.188 17.02-47.918-9.6094-13.73-32.801-14.543-51.801-1.8125zm5.4648 19.527c-6.1328 10.965-5.3633 22.598 1.7227 25.977 7.0859 3.375 17.801-2.7773 23.941-13.746 6.1367-10.965 5.3672-22.594-1.7188-25.977-7.0859-3.375-17.809 2.7773-23.945 13.746zm-240.73 63.789 3.1289-16.645c13.906 4.5039 25.98 6.6719 35.051 2.1211 7.0547-3.5391 12.301-11.145 15.176-24.871-12.793 12.094-33.535 20.086-43.047 8.6914-13.039-17.809-0.6875-40.969 14-50.48 16.305-10.562 37.957-10.016 59.531-10.473-6.6836 18.566-6.8047 47.699-15.68 68.43-4.6836 10.945-12.547 17.973-21.965 21.996-13.773 5.875-30.863 5.3359-46.195 1.2305" fill="#a3cc38"/>
   <g fill="#211e1e">
    <path d="m48.031 59.562c-6.4766 7.6133-11.359 16.273-14.934 25.746-3.75 9.8516-5.7539 19.977-5.7539 30.773 0 12.234 2.6094 23.566 7.0977 34.273 4.4688 10.629 10.578 19.766 18.621 27.793 7.8242 7.8242 16.992 14.082 27.59 18.637 10.594 4.625 22.113 7.1719 34.059 7.1719 12.152 0 23.484-2.4375 34.27-7.1719 10.32-4.5039 19.633-10.664 27.59-18.637 7.8828-7.8945 13.961-17.219 18.332-27.793 4.5859-10.816 7.1875-22.039 7.1875-34.273 0-10.797-2.0234-20.922-5.7617-30.773-3.6562-9.4727-8.5-17.945-14.934-25.746-6.4375-7.6328-13.887-13.949-22.328-18.832-13.258-7.6523-26.934-12.23-42.785-12.23h-2.2734c-15.645 0-29.977 4.4805-43.453 12.23-8.5312 4.8477-16.059 11.23-22.523 18.832"/>
    <path d="m835.37 178.14c2.2188 0 3.9844 0.71094 5.293 2.2891 1.332 1.5 2.0469 3.4414 2.0469 6 0 2.375-0.71484 4.418-2.0469 5.8359-1.3086 1.4727-3.0742 2.1836-5.293 2.1836-2.1797 0-3.8672-0.67968-5.1797-2.1836-1.418-1.418-2.043-3.4609-2.043-5.8359 0-2.5586 0.625-4.5 2.043-6 1.3125-1.5781 3-2.2891 5.1797-2.2891zm0-14.453c-3.2383 0-6.2344 0.51562-9.0781 1.6641-2.8086 1.1523-5.2852 2.7226-7.3867 4.8555-2.125 2.125-3.7891 4.5-4.8555 7.2266-1.1484 2.7539-1.6602 5.7539-1.6602 8.9961 0 3.082 0.51172 6.082 1.6602 8.8359 1.0664 2.6172 2.7305 5.1055 4.8555 7.2305 2.2109 2.0156 4.6641 3.6797 7.5 4.8242 2.7305 1.0625 5.8086 1.6875 8.9648 1.6875 3.2812 0 6.1953-0.625 9.1172-1.6875 2.7227-1.1445 5.2578-2.8086 7.3867-4.8242 2.2031-2.125 3.7891-4.6133 4.9375-7.3438 1.1445-2.7227 1.6875-5.6367 1.6875-8.7227 0-3.2422-0.54297-6.2422-1.6875-8.9961-1.0625-2.7266-2.6484-5.1016-4.8594-7.2266-2.0938-2.1328-4.6641-3.7031-7.4648-4.8555-2.8359-1.1484-5.8359-1.6641-9.1172-1.6641"/>
    <path d="m805.24 195.71c0.35547-2.0508 0.50781-4.582 0.50781-7.6875v-23.379h-15.512v23.566c0 2.6445-0.27344 4.5-0.97656 5.6484-0.70703 1.0625-1.7461 1.5781-3.3594 1.5781-1.582 0-2.6367-0.51562-3.3242-1.5781-0.6289-0.98828-0.98437-2.918-0.98437-5.6484v-23.566h-15.426v23.379c-0.0898 3.2695 0.17969 5.7539 0.53515 7.6875 0.32813 2.0195 1.043 3.5977 1.832 4.9375 1.7773 2.7188 4.1445 4.7461 7.1445 6.1641 2.9219 1.5 6.3555 2.2031 10.223 2.2031 3.9024 0 7.2578-0.70313 10.23-2.2031 3-1.418 5.3984-3.4453 7.0586-6.1641 0.87109-1.3398 1.5859-3.0039 2.0508-4.9375"/>
    <path d="m880.54 164.64h-15.523v43.227h30.598v-14.012h-15.074v-29.215"/>
   </g>
   <path d="m173.09 60.285c-10.824-13.152-24.828-21.621-42.113-24.891-16.969-3.1953-33.043-0.63672-48.262 7.6172-7.8203 4.3945-14.43 9.8789-19.758 16.344-5.4805 6.6133-9.6719 14.219-12.371 22.75-2.7734 8.7461-3.4844 17.926-2.5547 26.875 2.2734-5.7539 5.7539-11.031 9.8906-16.07 5.9609-7.1133 13.359-12.441 21.609-16.352 8.2344-3.6992 17.27-5.7617 26.652-5.9727 9.4453 0 18.625 1.8438 27.141 5.5508 8.9766 3.6289 16.797 9.1719 23.465 16.566 2.4961 2.4883 4.5664 5.4688 6.6133 8.457 2.9805 0 5.9766 0.20703 8.5352 0.92968 6.6836 1.8438 11.953 5.2539 16.074 10.375l0.19922-3.2773c0.72656-8.957-0.19922-17.414-2.6836-25.734-2.5664-8.25-6.7031-16.07-12.438-23.168" fill="#f3a833"/>
   <path d="m46.172 143.03c1.1367 6.8984 3.207 13.504 6.6719 19.547 3.2188 5.9805 7.6172 11.445 13.094 16.285l2.7734 2.2773c9.4609 6.4727 19.543 11.09 30.578 13.367 7.1133 1.3438 14.285 0.91797 21.184-0.71094 7.3164-1.5664 14.227-4.5508 20.691-8.9609-5.9766-1.3516-11.305-4.5586-15.441-9.3867l-1.625-1.8438c-8.6758 0.92187-17.414 0.64062-26.164-1.1367-11.102-2.5547-20.691-7.1836-29.648-13.578-8.5352-6.4726-15.633-14.727-20.977-24.383l-1.3516-2.7852c-0.21094 3.6992-0.21094 7.6016 0.21484 11.309" fill="#f3a833"/>
   <path d="m128 85.094c-8.0234-3.4844-16.785-5.0469-25.727-5.0469-8.7461 0.20703-17 2.0586-24.602 5.75-7.6133 3.4219-14.211 8.4688-19.746 14.941-3.9258 4.8359-7.1289 10.098-9.1797 15.637 1.5625 6.8945 4.1016 13.289 7.8203 19.766 5.2578 8.9531 12.148 16.555 20.68 22.531 8.25 5.9688 17.711 9.8867 27.789 12.148 6.1797 1.1484 12.664 1.6484 19.066 1.3516-2.4883-4.1094-4.125-8.4492-4.8359-13.5-0.85938-5.1094-0.63281-10.164 0.27734-15.641 1.1367-6.6836 3.6328-12.871 7.0977-18.629 3.7226-5.7578 8.5508-11.016 14.227-15.215 3.707-2.6914 7.6172-4.7539 11.531-6.3984l-2.0703-2.3438c-6.4648-6.6055-13.793-11.941-22.328-15.352" fill="#d94735"/>
   <path d="m189.42 124.4-2.0469-3.4805c-2.9961 10.375-8.5508 19.559-15.648 27.875-1.6367 6.8867-4.4102 13.074-8.0273 18.836-3.7031 5.6836-8.5469 10.805-14.082 15.145 3.9141 0.20703 7.8242-0.42187 11.738-1.8555 3.6836-1.3476 7.0976-3.4062 10.582-6.1914 4.6328-4.3281 8.9688-9.4453 12.66-14.703l0.63281-0.92187c1.6367-3.4219 3.2812-6.8945 4.4023-10.105 1.1484-3.4805 1.8594-6.8906 2.0781-10.078 0.21093-3.5 0.21093-6.4883-0.42969-9.4688-0.5-1.8398-1.2109-3.4805-1.8594-5.0508" fill="#ee8a2e"/>
   <g fill="#e16833">
    <path d="m38.129 83.941c-2.9805 8.2695-4.6055 16.996-5.0312 26.465-0.21094 12.141 2.0508 23.879 6.6836 34.91 2.2578 5.2461 5.0508 10.367 8.4453 15.211 3.293 4.5469 6.9062 8.9609 11.023 12.789-8.9453-9.8828-14.23-21.328-15.836-34.191-0.4375-4.4023-0.4375-8.5273-0.22266-12.867-2.9805-8.332-4.6172-16.566-4.6172-25.098 0-8.0273 1.4102-15.852 3.9062-23.898 2.1289-5.5312 4.8281-10.801 7.8242-15.617-5.2852 6.8906-9.1641 14.277-12.176 22.297"/>
    <path d="m195.12 88.789c-2.0664-6.6836-4.7656-13.156-8.2539-19.125-3.4062-5.7578-7.6133-11.027-12.645-15.844-4.5586-4.8477-9.8867-8.9727-15.855-12.449 5.0352 3.4766 9.6523 7.6016 13.785 12.227 6.4688 7.3242 11.309 15.145 14.289 23.891 2.9805 8.9492 4.3398 18.203 3.6289 27.797-0.20703 2.9883-0.64844 5.7539-1.1328 8.7422 1.1328 1.8477 2.3438 4.1172 3.2734 6.4648 2.2617 6.6875 2.6914 13.793 1.5547 20.906 3.4844-9.8711 5.2539-20.273 5.043-30.992-0.42968-7.3945-1.5586-14.715-3.6875-21.617"/>
    <path d="m168.02 110.61c2.2812 4.832 3.707 10.102 4.3398 15.359 0.73047 5.3242 0.92969 10.375 0.50391 15.426l-0.92578 5.0508c6.8867-8.0274 11.523-16.996 14.227-27.383-1.5664-1.5547-3.2031-3.1914-5.0664-4.5352-3.6914-2.5664-8.0078-3.918-13.078-3.918"/>
   </g>
   <path d="m154.24 171.26c2.7734-3.918 5.043-8.2383 6.6797-12.586-9.25 6.6133-19.332 11.242-30.355 13.5 1.5664 2.5586 3.6875 4.6328 5.9648 6.2656 2.2852 1.5625 4.8359 2.7031 7.8164 3.6289 3.707-3.2031 7.1133-6.9062 9.8945-10.809" fill="#d94735"/>
   <path d="m108.02 195.85 9.9023 0.4961c8.5273-0.20704 16.543-1.8398 24.383-4.4062 7.3164-2.4883 14.488-5.9688 20.691-10.309-3.9258 1.8516-8.0469 3.2031-12.441 3.4102-1.3594 0.28125-3 0.28125-4.5586 0.28125-11.293 7.332-23.973 10.816-37.977 10.527" fill="#d94735"/>
   <path d="m162.77 129.24c-1.4102-5.9688-3.4805-11.504-6.4609-16.773-5.2695 1.5625-9.8906 4.3398-14.23 8.0274-4.6172 3.9102-8.5234 8.7461-11.508 14.23-2.5703 5.5312-4.1211 10.797-4.6211 16.336-0.63672 5.2617 0 10.105 1.418 14.723 0.63281 1.5586 1.1367 2.9805 2.0703 4.3398 5.7539-0.63281 11.008-2.2773 16.277-4.5547 5.5312-2.1328 10.594-5.0391 15.422-8.7344l0.42578-0.29687c0.9336-3.4141 1.6406-6.8906 2.1406-10.316 0.41015-5.7383 0.20312-11.227-0.9336-16.98" fill="#fae635"/>
  </g>
 </g>
</svg>
