<?xml version="1.0" encoding="UTF-8"?>
<svg width="60" height="37" version="1.1" viewBox="0 0 15.875 9.7895833" xmlns="http://www.w3.org/2000/svg">
 <g transform="translate(-14.48 -48.707)">
  <rect x="14.5" y="48.727" width="15.834" height="9.749" fill="#fff" style="paint-order:normal"/>
  <g transform="matrix(.081557 0 0 .081557 14.033 50.708)">
   <g transform="matrix(2.447 0 0 -2.447 79.174 33.624)">
    <path d="m0 0c0 4.763-5.919 8.646-13.219 8.646-7.301 0-13.218-3.883-13.218-8.646 0-0.123-1e-3 -0.464-1e-3 -0.507 0-5.052 5.172-9.145 13.217-9.145 8.096 0 13.221 4.091 13.221 9.145z" fill="#28316b"/>
   </g>
   <g transform="matrix(2.447 0 0 -2.447 77.933 33.615)">
    <path d="m0 0c0-4.49-5.689-8.131-12.71-8.131-7.019 0-12.709 3.641-12.709 8.131 0 4.491 5.69 8.132 12.709 8.132 7.021 0 12.71-3.641 12.71-8.132" fill="#50b4e9"/>
   </g>
   <g transform="matrix(2.447 0 0 -2.447 36.507 27.337)">
    <path d="m0 0c-7e-3 -0.013-0.134-0.145-0.052-0.249 0.201-0.257 0.821-0.403 1.448-0.263 0.373 0.084 0.85 0.464 1.313 0.831 0.502 0.399 1.001 0.799 1.501 0.957 0.53 0.169 0.869 0.097 1.094 0.03 0.246-0.075 0.536-0.236 0.997-0.583 0.87-0.654 4.367-3.706 4.97-4.234 0.488 0.22 2.65 1.152 5.589 1.798-0.255 1.567-1.209 3.001-2.654 4.175-2.014-0.846-4.476-1.288-6.883-0.111-0.012 3e-3 -1.315 0.621-2.601 0.59-1.91-0.044-2.738-0.871-3.614-1.746z" fill="#fff"/>
   </g>
   <g transform="matrix(2.447 0 0 -2.447 63.741 36.74)">
    <path d="m0 0c-0.041 0.036-4.111 3.599-5.034 4.292-0.533 0.4-0.83 0.502-1.142 0.542-0.163 0.02-0.386-9e-3 -0.544-0.053-0.428-0.116-0.989-0.491-1.487-0.885-0.516-0.412-1.002-0.798-1.453-0.9-0.576-0.129-1.28 0.024-1.602 0.241-0.13 0.087-0.221 0.189-0.265 0.291-0.119 0.276 0.1 0.495 0.135 0.533l1.124 1.214c0.13 0.13 0.262 0.261 0.397 0.39-0.362-0.048-0.697-0.141-1.024-0.231-0.407-0.115-0.798-0.223-1.195-0.223-0.165 0-1.051 0.144-1.219 0.19-1.016 0.28-1.909 0.549-3.241 1.172-1.597-1.189-2.665-2.676-2.973-4.313 0.229-0.061 0.598-0.17 0.753-0.204 3.615-0.804 4.74-1.632 4.945-1.805 0.221 0.246 0.539 0.402 0.895 0.402 0.401-2e-3 0.761-0.202 0.98-0.512 0.207 0.164 0.492 0.302 0.861 0.302 0.167 0 0.341-0.03 0.517-0.09 0.408-0.139 0.618-0.411 0.727-0.658 0.137 0.063 0.305 0.109 0.503 0.108 0.195 0 0.398-0.044 0.601-0.132 0.666-0.286 0.77-0.942 0.71-1.435 0.048 6e-3 0.094 8e-3 0.144 8e-3 0.789-1e-3 1.433-0.642 1.432-1.433 0-0.245-0.063-0.474-0.171-0.677 0.215-0.12 0.763-0.394 1.243-0.333 0.385 0.049 0.531 0.18 0.583 0.254 0.036 0.05 0.074 0.11 0.038 0.153l-1.018 1.133s-0.169 0.158-0.114 0.22c0.058 0.062 0.162-0.028 0.236-0.089 0.517-0.434 1.152-1.087 1.152-1.087 0.01-8e-3 0.053-0.09 0.286-0.132 0.202-0.036 0.559-0.016 0.807 0.187 0.062 0.051 0.125 0.116 0.177 0.181-4e-3 -3e-3 -8e-3 -7e-3 -0.012-9e-3 0.261 0.334-0.029 0.672-0.029 0.672l-1.19 1.336s-0.171 0.158-0.113 0.222c0.052 0.054 0.162-0.029 0.236-0.091 0.377-0.314 0.91-0.85 1.42-1.35 0.1-0.072 0.549-0.35 1.143 0.04 0.36 0.237 0.432 0.527 0.423 0.747-0.026 0.29-0.252 0.497-0.252 0.497l-1.626 1.634s-0.172 0.147-0.112 0.221c0.05 0.063 0.161-0.027 0.235-0.089 0.518-0.433 1.921-1.719 1.921-1.719 0.019-0.014 0.505-0.359 1.102 0.023 0.215 0.137 0.352 0.343 0.363 0.582 0.021 0.417-0.273 0.663-0.273 0.663" fill="#fff"/>
   </g>
   <g transform="matrix(2.447 0 0 -2.447 44.44 41.811)">
    <path d="m0 0c-0.252 3e-3 -0.527-0.147-0.564-0.125-0.02 0.013 0.016 0.114 0.04 0.173 0.023 0.057 0.355 1.056-0.454 1.404-0.62 0.266-0.998-0.033-1.128-0.169-0.035-0.035-0.05-0.032-0.054 0.013-0.012 0.18-0.092 0.667-0.627 0.83-0.765 0.233-1.256-0.3-1.381-0.492-0.055 0.435-0.423 0.773-0.874 0.774-0.49 0-0.888-0.397-0.888-0.887 0-0.489 0.397-0.886 0.887-0.886 0.238-1e-3 0.454 0.094 0.613 0.247 5e-3 -5e-3 7e-3 -0.013 4e-3 -0.03-0.037-0.219-0.105-1.016 0.73-1.341 0.335-0.13 0.619-0.033 0.855 0.133 0.07 0.049 0.081 0.028 0.071-0.038-0.03-0.205 8e-3 -0.644 0.624-0.893 0.468-0.191 0.745 4e-3 0.926 0.172 0.079 0.072 0.101 0.059 0.106-0.051 0.021-0.594 0.514-1.064 1.113-1.065 0.616 0 1.116 0.498 1.116 1.114 0 0.617-0.499 1.11-1.115 1.117" fill="#fff"/>
   </g>
   <g transform="matrix(2.447 0 0 -2.447 44.44 47.076)">
    <path d="m0 0c-0.559 0-1.013 0.435-1.033 0.987-2e-3 0.048-7e-3 0.174-0.113 0.174-0.044 0-0.083-0.026-0.126-0.065-0.124-0.115-0.28-0.23-0.508-0.23-0.104 0-0.216 0.024-0.335 0.072-0.59 0.239-0.598 0.645-0.574 0.808 6e-3 0.043 8e-3 0.088-0.021 0.123l-0.037 0.032h-0.036c-0.03 0-0.062-0.011-0.103-0.041-0.171-0.12-0.335-0.177-0.501-0.177-0.092 0-0.185 0.017-0.28 0.054-0.776 0.302-0.715 1.035-0.677 1.256 5e-3 0.045-6e-3 0.079-0.034 0.103l-0.055 0.046-0.051-0.05c-0.152-0.147-0.35-0.226-0.558-0.226-0.444 0-0.807 0.362-0.807 0.807s0.364 0.806 0.808 0.806c0.402 0 0.745-0.302 0.796-0.705l0.028-0.216 0.118 0.183c0.014 0.022 0.34 0.515 0.94 0.515 0.113 0 0.231-0.02 0.349-0.056 0.479-0.145 0.559-0.578 0.572-0.76 9e-3 -0.105 0.083-0.11 0.098-0.11 0.04 0 0.072 0.026 0.093 0.049 0.09 0.095 0.286 0.251 0.594 0.251 0.141-1e-3 0.29-0.033 0.444-0.1 0.76-0.326 0.415-1.292 0.411-1.301-0.065-0.16-0.067-0.231-6e-3 -0.271l0.03-0.015h0.022c0.034 0 0.076 0.015 0.147 0.039 0.103 0.036 0.259 0.089 0.405 0.089h1e-3c0.571-7e-3 1.036-0.471 1.036-1.037-1e-3 -0.57-0.466-1.034-1.037-1.034m8.045 4.649c-1.253 1.095-4.151 3.615-4.937 4.204-0.448 0.337-0.754 0.516-1.022 0.595-0.121 0.036-0.288 0.078-0.503 0.078-0.199 0-0.413-0.036-0.638-0.107-0.508-0.16-1.012-0.562-1.502-0.95l-0.024-0.02c-0.456-0.362-0.926-0.737-1.282-0.816-0.156-0.035-0.316-0.053-0.475-0.053-0.399 0-0.757 0.115-0.891 0.287-0.023 0.028-8e-3 0.073 0.043 0.14l7e-3 9e-3 1.103 1.189c0.864 0.863 1.68 1.68 3.559 1.723 0.031 1e-3 0.063 2e-3 0.094 2e-3 1.169-2e-3 2.338-0.525 2.469-0.585 1.097-0.536 2.228-0.808 3.366-0.809 1.186 0 2.409 0.294 3.695 0.886-0.144 0.121-0.294 0.238-0.447 0.354-1.13-0.49-2.206-0.738-3.245-0.738-1.061 2e-3 -2.121 0.257-3.149 0.759-0.055 0.025-1.345 0.635-2.689 0.635-0.035 0-0.07 0-0.105-1e-3 -1.578-0.037-2.467-0.598-3.065-1.088-0.582-0.015-1.083-0.155-1.529-0.28-0.399-0.11-0.742-0.206-1.077-0.206-0.139 0-0.387 0.012-0.409 0.013-0.386 0.012-2.329 0.488-3.875 1.074-0.158-0.112-0.31-0.227-0.457-0.345 1.615-0.661 3.58-1.174 4.2-1.213 0.172-0.013 0.356-0.032 0.54-0.032 0.41 0 0.819 0.115 1.216 0.225 0.234 0.067 0.492 0.138 0.763 0.191l-0.217-0.217-1.121-1.212c-0.087-0.089-0.28-0.327-0.153-0.62 0.05-0.118 0.151-0.231 0.295-0.327 0.267-0.18 0.745-0.301 1.189-0.301 0.168-1e-3 0.329 0.016 0.475 0.05 0.47 0.104 0.962 0.497 1.484 0.912 0.416 0.331 1.007 0.75 1.459 0.874 0.127 0.034 0.283 0.055 0.408 0.055 0.037-1e-3 0.072-1e-3 0.104-5e-3 0.299-0.039 0.589-0.14 1.105-0.528 0.92-0.691 4.991-4.253 5.031-4.288 3e-3 -2e-3 0.262-0.225 0.244-0.599-0.01-0.207-0.125-0.391-0.325-0.519-0.174-0.11-0.354-0.166-0.534-0.166-0.273 0-0.46 0.128-0.472 0.137-0.016 0.012-1.41 1.291-1.924 1.72-0.081 0.068-0.16 0.129-0.24 0.129-0.044 0-0.082-0.018-0.108-0.05-0.081-0.1 0.01-0.238 0.117-0.329l1.63-1.636c2e-3 -2e-3 0.203-0.191 0.224-0.443 0.013-0.271-0.117-0.498-0.387-0.675-0.192-0.127-0.386-0.191-0.577-0.191-0.251 0-0.425 0.114-0.465 0.142l-0.233 0.229c-0.428 0.421-0.869 0.856-1.191 1.125-0.079 0.066-0.163 0.126-0.243 0.126-0.04 0-0.076-0.016-0.103-0.044-0.037-0.041-0.063-0.114 0.029-0.236 0.038-0.051 0.082-0.092 0.082-0.092l1.19-1.335c0.01-0.013 0.244-0.292 0.026-0.57l-0.042-0.054c-0.036-0.039-0.074-0.074-0.11-0.106-0.203-0.167-0.474-0.184-0.581-0.184-0.058 0-0.114 5e-3 -0.161 0.014-0.118 0.02-0.197 0.053-0.234 0.098l-0.014 0.016c-0.066 0.066-0.665 0.679-1.161 1.092-0.065 0.054-0.147 0.124-0.231 0.124-0.042 0-0.079-0.017-0.107-0.048-0.099-0.108 0.048-0.269 0.111-0.327l1.015-1.118c-1e-3 -0.01-0.015-0.034-0.04-0.069-0.036-0.051-0.159-0.174-0.526-0.22-0.044-5e-3 -0.09-7e-3 -0.135-7e-3 -0.38 0-0.784 0.184-0.993 0.295 0.096 0.2 0.145 0.42 0.145 0.642 0 0.835-0.678 1.514-1.513 1.514-0.018 0-0.036 0-0.055-1e-3 0.029 0.381-0.025 1.103-0.766 1.42-0.213 0.093-0.426 0.139-0.633 0.139-0.161 0-0.317-0.027-0.464-0.084-0.152 0.299-0.407 0.516-0.74 0.629-0.184 0.064-0.366 0.096-0.543 0.096-0.309 0-0.592-0.09-0.845-0.27-0.243 0.301-0.61 0.48-0.996 0.48-0.337 0-0.662-0.135-0.903-0.374-0.315 0.242-1.568 1.037-4.919 1.798-0.162 0.036-0.534 0.143-0.763 0.21-0.038-0.181-0.066-0.364-0.086-0.549 0 0 0.618-0.148 0.74-0.176 3.423-0.761 4.555-1.551 4.746-1.7-0.065-0.156-0.098-0.324-0.099-0.493 0-0.708 0.575-1.283 1.283-1.284 0.079 0 0.157 7e-3 0.235 0.021 0.107-0.52 0.447-0.915 0.968-1.117 0.151-0.059 0.306-0.089 0.457-0.089 0.098 0 0.195 0.012 0.292 0.036 0.096-0.243 0.313-0.548 0.796-0.744 0.17-0.068 0.339-0.103 0.504-0.103 0.135 0 0.267 0.023 0.392 0.069 0.232-0.565 0.783-0.939 1.398-0.939 0.407-1e-3 0.798 0.165 1.084 0.459 0.244-0.135 0.76-0.38 1.28-0.381 0.068 0 0.131 3e-3 0.195 0.011 0.517 0.066 0.757 0.268 0.868 0.425 0.02 0.028 0.038 0.058 0.053 0.087 0.123-0.035 0.256-0.063 0.411-0.063 0.282 0 0.553 0.095 0.828 0.295 0.268 0.195 0.46 0.473 0.487 0.71 1e-3 3e-3 2e-3 7e-3 2e-3 0.011 0.091-0.019 0.185-0.028 0.276-0.028 0.292 0 0.578 0.09 0.851 0.269 0.527 0.346 0.619 0.797 0.611 1.093 0.092-0.018 0.186-0.029 0.28-0.029 0.273 0 0.541 0.082 0.796 0.245 0.328 0.209 0.524 0.529 0.554 0.901 0.021 0.253-0.042 0.508-0.176 0.728 0.884 0.381 2.903 1.117 5.282 1.653-0.015 0.185-0.041 0.367-0.075 0.548-2.877-0.639-5.024-1.567-5.562-1.808" fill="#28316b"/>
   </g>
   <g transform="matrix(2.447 0 0 -2.447 186.5 28.537)">
    <path d="m0 0c-0.232-0.307-0.562-0.461-0.996-0.461-0.432 0-0.765 0.154-0.998 0.461-0.234 0.307-0.35 0.744-0.35 1.311 0 0.566 0.116 1.002 0.35 1.307 0.233 0.306 0.566 0.459 0.998 0.459 0.434 0 0.764-0.153 0.996-0.459 0.23-0.305 0.347-0.741 0.347-1.307 0-0.567-0.117-1.004-0.347-1.311m1.182 3.43c-0.478 0.597-1.202 0.896-2.173 0.896s-1.696-0.299-2.173-0.896c-0.478-0.598-0.716-1.304-0.716-2.119 0-0.83 0.238-1.539 0.716-2.128 0.477-0.588 1.202-0.883 2.173-0.883s1.695 0.295 2.173 0.883c0.477 0.589 0.715 1.298 0.715 2.128 0 0.815-0.238 1.521-0.715 2.119" fill="#28316b"/>
   </g>
   <g transform="matrix(2.447 0 0 -2.447 157.71 26.828)">
    <path d="m0 0c-0.01-0.496-0.152-0.838-0.425-1.025-0.272-0.188-0.571-0.282-0.894-0.282-0.205 0-0.378 0.058-0.521 0.17-0.143 0.114-0.214 0.296-0.214 0.55 0 0.283 0.117 0.493 0.35 0.629 0.139 0.079 0.365 0.147 0.682 0.201l0.338 0.064c0.167 0.032 0.3 0.066 0.397 0.102 0.098 0.035 0.192 0.082 0.287 0.143zm0.752 3.231c-0.483 0.246-1.037 0.369-1.66 0.369-0.959 0-1.635-0.249-2.029-0.748-0.248-0.32-0.386-0.728-0.418-1.224h1.431c0.035 0.22 0.106 0.393 0.211 0.52 0.148 0.174 0.399 0.261 0.754 0.261 0.316 0 0.557-0.044 0.721-0.134 0.162-0.087 0.244-0.248 0.244-0.48 0-0.191-0.107-0.33-0.319-0.421-0.12-0.053-0.317-0.096-0.593-0.131l-0.508-0.061c-0.576-0.074-1.014-0.196-1.31-0.366-0.542-0.312-0.812-0.816-0.812-1.513 0-0.537 0.167-0.952 0.505-1.246 0.336-0.293 0.762-0.416 1.279-0.44 3.236-0.145 3.2 1.705 3.23 2.09v2.13c0 0.683-0.243 1.148-0.726 1.394" fill="#28316b"/>
   </g>
   <g transform="matrix(2.447 0 0 -2.447 141.49 21.122)">
    <path d="m0 0c0.37 0 0.642-0.114 0.817-0.343 0.12-0.168 0.196-0.359 0.225-0.57h1.597c-0.088 0.806-0.369 1.367-0.846 1.685-0.478 0.318-1.089 0.478-1.836 0.478-0.88 0-1.569-0.271-2.069-0.81-0.5-0.54-0.75-1.294-0.75-2.263 0-0.859 0.226-1.559 0.678-2.099 0.453-0.539 1.159-0.808 2.118-0.808 0.961 0 1.685 0.323 2.173 0.969 0.307 0.402 0.478 0.826 0.514 1.277h-1.591c-0.032-0.298-0.125-0.54-0.279-0.727-0.153-0.185-0.412-0.28-0.778-0.28-0.515 0-0.867 0.235-1.052 0.706-0.103 0.251-0.154 0.584-0.154 0.998 0 0.434 0.051 0.782 0.154 1.046 0.193 0.493 0.554 0.741 1.079 0.741" fill="#28316b"/>
   </g>
   <g transform="matrix(2.447 0 0 -2.447 133.44 18.063)">
    <path d="m0 0c-3.279 0-3.086-2.904-3.086-2.904v-2.95h1.488v2.767c0 0.453 0.059 0.789 0.171 1.008 0.205 0.387 0.604 0.581 1.199 0.581 0.044 0 0.104-3e-3 0.176-7e-3 0.073-3e-3 0.156-0.01 0.25-0.02v1.513c-0.066 5e-3 -0.109 7e-3 -0.128 9e-3 -0.018 1e-3 -0.042 3e-3 -0.07 3e-3" fill="#28316b"/>
   </g>
   <g transform="matrix(2.447 0 0 -2.447 115.17 21.834)">
    <path d="m0 0c0.209 0.215 0.503 0.322 0.883 0.322 0.348 0 0.64-0.1 0.877-0.304 0.234-0.204 0.366-0.501 0.392-0.893h-2.546c0.053 0.368 0.186 0.659 0.394 0.875m2-2.771c-0.063-0.089-0.129-0.166-0.203-0.225-0.211-0.173-0.496-0.226-0.832-0.226-0.319 0-0.568 0.048-0.792 0.19-0.371 0.228-0.581 0.614-0.604 1.181h4.119c5e-3 0.489-0.01 0.863-0.05 1.122-0.068 0.443-0.219 0.833-0.45 1.169-0.257 0.381-0.584 0.66-0.977 0.837-0.395 0.176-0.837 0.264-1.328 0.264-0.829 0-1.503-0.261-2.023-0.783-0.518-0.523-0.779-1.274-0.779-2.253 0-1.045 0.288-1.8 0.863-2.263 0.575-0.464 1.24-0.696 1.992-0.696 0.911 0 1.62 0.275 2.126 0.825 0.274 0.289 0.444 0.575 0.517 0.858z" fill="#28316b"/>
   </g>
   <g transform="matrix(2.447 0 0 -2.447 109.01 32.384)">
    <path d="m0 0h-1.359v3.423c0 0.312-0.104 1.056-1 1.056-0.598 0-1.031-0.431-1.031-1.056v-3.423h-1.36v3.423c0 0.312-0.093 1.056-0.989 1.056-0.609 0-1.032-0.431-1.032-1.056v-3.423h-1.36v3.39c0 1.414 0.939 2.482 2.392 2.482 0.721 0 1.308-0.303 1.69-0.788 0.402 0.485 0.999 0.788 1.69 0.788 1.484 0 2.359-1.024 2.359-2.482z" fill="#28316b"/>
   </g>
   <g transform="matrix(2.447 0 0 -2.447 171.55 28.566)">
    <path d="m0 0c-0.217-0.312-0.537-0.467-0.954-0.467-0.419 0-0.731 0.157-0.937 0.469-0.205 0.313-0.307 0.769-0.307 1.291 0 0.485 0.1 0.89 0.302 1.217 0.203 0.326 0.519 0.49 0.952 0.49 0.284 0 0.532-0.09 0.747-0.27 0.348-0.296 0.524-0.831 0.524-1.522 0-0.494-0.11-0.897-0.327-1.208m1.784 6.079s-1.498 0.16-1.498-1.044l-2e-3 -1.595c-0.166 0.268-0.382 0.476-0.647 0.625-0.266 0.151-0.57 0.227-0.913 0.227-0.745 0-1.336-0.277-1.781-0.829-0.445-0.555-0.667-1.352-0.667-2.317 0-0.836 0.226-1.523 0.677-2.057 0.452-0.533 1.336-0.768 2.122-0.768 2.74 0 2.708 2.35 2.708 2.35z" fill="#28316b"/>
   </g>
   <g transform="matrix(2.447 0 0 -2.447 98.857 45.644)">
    <path d="m0 0c0 0.562-0.109 0.992-0.329 1.295-0.219 0.302-0.532 0.454-0.941 0.454-0.393 0-0.7-0.152-0.919-0.454-0.204-0.274-0.305-0.706-0.305-1.295 0-0.549 0.108-0.957 0.328-1.23 0.218-0.304 0.532-0.455 0.94-0.455 0.379 0 0.678 0.151 0.897 0.455 0.22 0.301 0.329 0.71 0.329 1.23m-2.494-4.026c0-0.21-0.08-0.39-0.239-0.536-0.142-0.132-0.334-0.199-0.529-0.199h-0.72v5.172c0 1.006 0.339 1.635 0.897 2.061 0.403 0.307 1.022 0.599 2.248 0.542 0.632-0.029 1.241-0.304 1.643-0.792 0.496-0.605 0.703-1.278 0.703-2.158 0-0.907-0.219-1.638-0.656-2.202-0.437-0.547-0.999-0.82-1.685-0.82-0.365 0-0.686 0.065-0.962 0.194-0.293 0.144-0.524 0.368-0.7 0.67z" fill="#50b4e9"/>
   </g>
   <g transform="matrix(2.447 0 0 -2.447 120.68 45.647)">
    <path d="m0 0c0-0.991 0.287-1.541 0.86-1.65 0.573-0.106 0.995 0.026 1.268 0.4 0.129 0.156 0.222 0.406 0.279 0.743 0.057 0.338 0.061 0.672 0.011 1.003-0.05 0.332-0.168 0.626-0.355 0.885-0.186 0.259-0.459 0.389-0.816 0.389-0.487 0-0.816-0.181-0.988-0.54-0.174-0.359-0.259-0.769-0.259-1.23m2.45-2.479v0.365c-0.258-0.404-0.605-0.654-1.042-0.755-0.437-0.1-0.871-0.065-1.3 0.109-0.43 0.172-0.798 0.491-1.107 0.958-0.308 0.47-0.461 1.084-0.461 1.846 0 0.891 0.204 1.614 0.611 2.167 0.409 0.554 1.065 0.806 1.967 0.831 0.89 0.023 1.406-0.178 1.912-0.561 0.554-0.42 0.881-1.064 0.881-2.07v-3.043c2e-3 -0.968-0.673-2.763-2.793-2.61-1.313 0.096-2.043 0.635-2.449 1.855h1.568c0.115-0.2 0.29-0.355 0.527-0.463 0.236-0.109 0.473-0.136 0.708-0.087 0.236 0.051 0.451 0.192 0.646 0.421 0.193 0.231 0.303 0.576 0.332 1.037" fill="#50b4e9"/>
   </g>
   <g transform="matrix(2.447 0 0 -2.447 112.15 47.114)">
    <path d="m0 0c-9e-3 -0.497-0.151-0.838-0.424-1.025-0.272-0.188-0.571-0.282-0.894-0.282-0.205 0-0.379 0.058-0.522 0.17-0.142 0.113-0.214 0.296-0.214 0.55 0 0.283 0.117 0.493 0.351 0.629 0.139 0.079 0.365 0.147 0.681 0.201l0.338 0.064c0.168 0.032 0.301 0.065 0.397 0.102 0.098 0.035 0.192 0.082 0.287 0.143zm0.752 3.231c-0.483 0.245-1.038 0.369-1.661 0.369-0.958 0-1.634-0.249-2.028-0.749-0.246-0.319-0.385-0.727-0.417-1.223h1.431c0.035 0.22 0.106 0.393 0.211 0.52 0.148 0.173 0.399 0.261 0.753 0.261 0.318 0 0.558-0.044 0.721-0.134 0.162-0.087 0.245-0.248 0.245-0.48 0-0.191-0.107-0.331-0.319-0.422-0.12-0.052-0.317-0.095-0.594-0.13l-0.507-0.061c-0.576-0.074-1.015-0.196-1.31-0.366-0.543-0.312-0.813-0.816-0.813-1.513 0-0.537 0.168-0.952 0.505-1.245 0.336-0.294 0.763-0.417 1.28-0.441 3.235-0.145 3.199 1.706 3.229 2.09v2.13c0 0.683-0.242 1.147-0.726 1.394" fill="#50b4e9"/>
   </g>
   <g transform="matrix(2.447 0 0 -2.447 141.13 48.744)">
    <path d="m0 0c-0.231-0.308-0.562-0.462-0.995-0.462-0.432 0-0.765 0.154-0.998 0.462-0.235 0.307-0.351 0.743-0.351 1.31 0 0.565 0.116 1.002 0.351 1.306 0.233 0.307 0.566 0.459 0.998 0.459 0.433 0 0.764-0.152 0.995-0.459 0.231-0.304 0.348-0.741 0.348-1.306 0-0.567-0.117-1.003-0.348-1.31m1.183 3.428c-0.478 0.598-1.202 0.897-2.174 0.897-0.97 0-1.695-0.299-2.172-0.897-0.478-0.598-0.716-1.304-0.716-2.118 0-0.83 0.238-1.539 0.716-2.128 0.477-0.588 1.202-0.883 2.172-0.883 0.972 0 1.696 0.295 2.174 0.883 0.476 0.589 0.714 1.298 0.714 2.128 0 0.814-0.238 1.52-0.714 2.118" fill="#50b4e9"/>
   </g>
  </g>
 </g>
</svg>
