<?xml version="1.0" encoding="UTF-8"?>
<svg width="60" height="37" version="1.1" viewBox="0 0 15.875 9.7895833" xmlns="http://www.w3.org/2000/svg">
 <g transform="translate(-14.48 -48.707)">
  <rect x="14.5" y="48.727" width="15.834" height="9.749" fill="#fff" style="paint-order:normal"/>
  <g transform="translate(-.58089 6.4339)" stroke-width=".11409">
   <path d="m21.221 46.216h-0.78023a0.10838 0.10838 0 0 0 -0.10713 0.09149l-0.31556 2.0007a0.065029 0.065029 0 0 0 0.06434 0.07507h0.37249a0.10838 0.10838 0 0 0 0.10712 -0.09161l0.08511-0.53962a0.10838 0.10838 0 0 1 0.10701 -0.09161h0.247c0.51395 0 0.81058-0.24871 0.88804-0.74155 0.03491-0.21562 0.0015-0.38504-0.09948-0.50369-0.1109-0.13028-0.30758-0.19919-0.56872-0.19919zm0.09002 0.73072c-0.04267 0.27996-0.25658 0.27996-0.46342 0.27996h-0.11774l0.0826-0.52285a0.065029 0.065029 0 0 1 0.06423 -0.05488h0.05396c0.1409 0 0.2738 0 0.34248 0.08032 0.04096 0.04792 0.05351 0.11911 0.03787 0.21745zm2.2422-0.0091h-0.37363a0.065029 0.065029 0 0 0 -0.06423 0.05488l-0.01655 0.1045-0.02614-0.03787c-0.08089-0.11739-0.26125-0.15664-0.44128-0.15664-0.41288 0-0.76551 0.31271-0.83419 0.75136-0.03571 0.21882 0.01506 0.42805 0.13918 0.57396 0.11386 0.13417 0.27677 0.19007 0.4706 0.19007 0.33267 0 0.51715-0.21391 0.51715-0.21391l-0.01666 0.10381a0.065029 0.065029 0 0 0 0.06412 0.07529h0.33655a0.10838 0.10838 0 0 0 0.10712 -0.09161l0.20193-1.2788a0.0648 0.0648 0 0 0 -0.06401 -0.07507zm-0.5208 0.72718c-0.03605 0.21345-0.20547 0.35674-0.42154 0.35674-0.10849 0-0.1952-0.03479-0.25087-0.10074-0.05521-0.06548-0.07621-0.15869-0.05864-0.26251 0.03365-0.21163 0.20592-0.3596 0.41869-0.3596 0.1061 0 0.19235 0.03525 0.24916 0.10177 0.05692 0.06719 0.07951 0.16098 0.0632 0.26434zm2.5107-0.72718h-0.37546a0.10884 0.10884 0 0 0 -0.08978 0.04757l-0.51783 0.76277-0.2195-0.733a0.10872 0.10872 0 0 0 -0.10405 -0.07735h-0.36896a0.065029 0.065029 0 0 0 -0.06172 0.08602l0.41356 1.2136-0.3888 0.54886a0.065029 0.065029 0 0 0 0.05305 0.10267h0.375a0.10827 0.10827 0 0 0 0.0891 -0.04654l1.2488-1.8025a0.065029 0.065029 0 0 0 -0.05339 -0.1021z" fill="#253b80"/>
   <path d="m26.786 46.216h-0.78034a0.10838 0.10838 0 0 0 -0.10701 0.09149l-0.31556 2.0007a0.064914 0.064914 0 0 0 0.06412 0.07507h0.40044a0.075867 0.075867 0 0 0 0.07484 -0.06412l0.08956-0.56712a0.10838 0.10838 0 0 1 0.10701 -0.09161h0.24688c0.51407 0 0.81058-0.24871 0.88815-0.74155 0.03503-0.21562 0.0013-0.38504-0.0996-0.50369-0.11077-0.13028-0.30735-0.19919-0.56849-0.19919zm0.09002 0.73072c-0.04256 0.27996-0.25646 0.27996-0.46342 0.27996h-0.11762l0.08271-0.52285a0.0648 0.0648 0 0 1 0.06412 -0.05488h0.05396c0.14078 0 0.2738 0 0.34248 0.08032 0.04096 0.04792 0.05339 0.11911 0.03776 0.21745zm2.2421-0.0091h-0.3734a0.064686 0.064686 0 0 0 -0.06412 0.05488l-0.01655 0.1045-0.02624-0.03787c-0.08089-0.11739-0.26114-0.15664-0.44117-0.15664-0.41288 0-0.7654 0.31271-0.83408 0.75136-0.03559 0.21882 0.01495 0.42805 0.13907 0.57396 0.11409 0.13417 0.27677 0.19007 0.4706 0.19007 0.33267 0 0.51715-0.21391 0.51715-0.21391l-0.01666 0.10381a0.065029 0.065029 0 0 0 0.06434 0.07529h0.33644a0.10838 0.10838 0 0 0 0.10701 -0.09161l0.20205-1.2788a0.065143 0.065143 0 0 0 -0.06447 -0.07507zm-0.5208 0.72722c-0.03582 0.21345-0.20547 0.35674-0.42155 0.35674-0.10827 0-0.1952-0.03479-0.25087-0.10074-0.05521-0.06548-0.07598-0.15869-0.05864-0.26251 0.03389-0.21163 0.20592-0.3596 0.41869-0.3596 0.1061 0 0.19235 0.03525 0.24916 0.10177 0.05715 0.06719 0.07975 0.16098 0.0632 0.26434zm0.96128-1.394-0.32024 2.0373a0.064914 0.064914 0 0 0 0.06412 0.07507h0.32195c0.05351 0 0.09891-0.03879 0.10712-0.09161l0.31579-2.0006a0.065029 0.065029 0 0 0 -0.06412 -0.07518h-0.36051a0.065143 0.065143 0 0 0 -0.06412 0.05499z" fill="#179bd7"/>
   <path d="m16.778 48.772 0.05967-0.37899-0.13291-3e-3h-0.63466l0.44105-2.7966a0.036051 0.036051 0 0 1 0.03582 -0.03058h1.0701c0.35526 0 0.60043 0.07393 0.72844 0.21984 0.06001 0.06845 0.09823 0.13998 0.11671 0.2187 0.0194 0.0826 0.01974 0.18128 7.99e-4 0.30164l-0.0013 0.0088v0.07712l0.06001 0.034a0.42097 0.42097 0 0 1 0.1215 0.09264c0.05134 0.05852 0.08454 0.13291 0.09857 0.2211 0.01449 0.0907 0.0097 0.19862-0.01403 0.32081-0.02738 0.14055-0.07165 0.26297-0.13143 0.36313a0.74692 0.74692 0 0 1 -0.20822 0.22815c-0.0794 0.05636-0.17375 0.09914-0.28042 0.12652-0.10337 0.02692-0.22121 0.0405-0.35047 0.0405h-0.08328c-0.05955 0-0.11739 0.02145-0.1628 0.05989a0.25213 0.25213 0 0 0 -0.08488 0.15151l-0.0063 0.03411-0.10541 0.66797-0.0048 0.02453c-0.0012 0.0077-0.0035 0.01164-0.0066 0.01427a0.017683 0.017683 0 0 1 -0.01096 4e-3z" fill="#253b80"/>
   <path d="m18.578 46.321c-0.0032 0.02042-0.0068 0.04131-0.01096 0.06274-0.14112 0.72456-0.62393 0.97486-1.2406 0.97486h-0.31396c-0.07541 0-0.13896 0.05475-0.15071 0.12914l-0.16075 1.0195-0.04552 0.28898a0.080316 0.080316 0 0 0 0.07929 0.09287h0.55685c0.06594 0 0.12196-0.04792 0.13234-0.11294l0.0055-0.02829 0.10484-0.66535 0.0067-0.03651c0.01029-0.06526 0.0664-0.11317 0.13234-0.11317h0.08328c0.53951 0 0.96185-0.21904 1.0853-0.8529 0.05157-0.26479 0.02487-0.48589-0.11158-0.64139a0.53244 0.53244 0 0 0 -0.15242 -0.1175z" fill="#179bd7"/>
   <path d="m18.431 46.262a1.1131 1.1131 0 0 0 -0.13724 -0.03045 1.7437 1.7437 0 0 0 -0.27677 -0.0202h-0.83876a0.13371 0.13371 0 0 0 -0.13222 0.11317l-0.17843 1.1301-0.0051 0.03297a0.15242 0.15242 0 0 1 0.15071 -0.12914h0.31396c0.61663 0 1.0994-0.25042 1.2406-0.97486 0.0043-0.02145 0.0077-0.04232 0.01096-0.06274a0.75228 0.75228 0 0 0 -0.11602 -0.04894 1.0319 1.0319 0 0 0 -0.03159 -0.01z" fill="#222d65"/>
   <path d="m17.046 46.325a0.13337 0.13337 0 0 1 0.13222 -0.11306h0.83876c0.09937 0 0.19212 0.0065 0.27677 0.02019a1.1131 1.1131 0 0 1 0.16896 0.04028c0.04164 0.01381 0.08032 0.03012 0.11602 0.04894 0.04198-0.26776-3.41e-4 -0.45007-0.14512-0.61515-0.1596-0.18174-0.44767-0.25955-0.81628-0.25955h-1.0701c-0.0753 0-0.13953 0.05475-0.15116 0.12926l-0.44573 2.8253a0.091953 0.091953 0 0 0 0.0907 0.10633h0.66067l0.16588-1.0524z" fill="#253b80"/>
  </g>
 </g>
</svg>
