<?xml version="1.0" encoding="UTF-8"?>
<svg width="120" height="40" version="1.1" viewBox="0 0 112.5 37.5" xmlns="http://www.w3.org/2000/svg" xmlns:xlink="http://www.w3.org/1999/xlink">
 <text x="87.504463" y="-86.804604" fill="#000000" font-family="purisa" font-size="25px" letter-spacing="0px" stroke-width=".9375" word-spacing="0px" style="line-height:1.25" xml:space="preserve"><tspan x="87.504463" y="-63.679604" stroke-width=".9375"/></text>
 <g transform="translate(.3733 29.316)" fill="#fff">
  <g transform="matrix(2.2263 0 0 2.2263 -1.0304 10.524)" fill="#fff">
   <g transform="matrix(.72025 0 0 .72025 -9.2851 7.6804)" fill="#fff">
    <path d="m15.149-31.533s0.24802 2.9818 0.63778 5.4594c0.33258 2.114 0.39275 2.371 0.69041 3.6532 0.26896 1.1586 0.47229 1.7179 0.80255 2.0656 0.3069 0.32308 0.57164 0.4188 0.87648 0.50747 0.74169 0.21574 2.1356 0.30448 3.2259 0.30448 1.0902 0 2.4157-0.01222 3.1545-0.19484 0.3338-0.08254 0.68002-0.15955 1.1208-0.37966 0.3722-0.18584 0.60834-0.42352 0.60834-0.42352s-0.28411-1.6654-0.49431-2.5937c-0.14085-0.62201-0.28277-1.2837-0.58892-1.8432-0.15504-0.28333-0.35288-0.52047-0.63277-0.68164-0.32511-0.18721-0.85742-0.35197-1.2298-0.3972-0.49-0.05953-1.0252-0.16633-2.4622-0.15913-1.4444 0.0073-2.9602 0.32641-2.9602 0.32641s-0.21309-1.6429-0.34458-2.4703c-0.1205-0.75824-0.29571-2.2842-0.29571-2.2842s-0.05812-0.39845-0.18795-0.53692c-0.12244-0.13058-0.49494-0.20988-0.49494-0.20988zm39.523 3.2447-6.42e-4 1.8175h-1.9973v0.51937h1.9835v3.7158c0 0.39211 0.03607 0.75244 0.10901 1.0807 0.08207 0.31916 0.21016 0.59275 0.38342 0.82072 0.18238 0.22797 0.42394 0.40549 0.72486 0.53316 0.30092 0.12766 0.67929 0.19171 1.1352 0.19171 0.41035 0 0.77068-0.03669 1.0807-0.10963 0.31004-0.07295 0.61565-0.17306 0.91657-0.30072l-0.16414-0.46487c-0.26444 0.10943-0.53804 0.19617-0.82072 0.26-0.27357 0.05471-0.58384 0.08145-0.93036 0.08145-0.36475 0-0.66571-0.04539-0.9028-0.13658s-0.42394-0.22332-0.56072-0.39658c-0.13679-0.18238-0.23285-0.39659-0.28756-0.6428-0.0547-0.25533-0.08208-0.54291-0.08208-0.86207v-3.7703h3.5022v-0.51937h-3.5015v-1.8175zm-18.189 0.01817 0.16665 1.7454h-2.4409l0.15788 1.0281h2.3532l0.27566 2.308s0.11408 0.99208 0.27316 1.4585c0.16497 0.48371 0.36825 0.85121 0.72549 1.2023 0.27911 0.27427 0.57496 0.46985 0.94038 0.63966 0.28247 0.13128 0.85503 0.2754 1.1922 0.2788 1.0989 0.01043 1.6916-0.40284 1.6916-0.40284l-0.21802-0.8746s-0.37662 0.16364-0.55634 0.20299c-0.19713 0.04329-0.30497 0.0625-0.49682 0.04949-0.19374-0.01318-0.35216-0.02656-0.5294-0.10588-0.16627-0.07441-0.26401-0.19932-0.34207-0.30135-0.47751-0.62412-0.67913-2.4565-0.67913-2.4565l-0.19422-1.9986h2.5355l-0.15725-1.0281h-2.4772l-0.19108-1.7354zm-7.1121 1.7454s0.44545 4.8413 0.77624 6.5752c0.02199 0.11526 0.10905 0.23045 0.21113 0.28255 0.10514 0.0537 0.34646 0.05764 0.34646 0.05764h1.5168c-0.39503-2.5801-0.75494-6.329-0.75494-6.329s-0.0063-0.24509-0.21301-0.43855c-0.18828-0.17624-0.53378-0.14786-0.53378-0.14786zm18.084 0.0213c-0.4377 0-0.82073 0.04602-1.149 0.1372-0.31916 0.09119-0.58809 0.21866-0.80694 0.3828-0.20973 0.15502-0.36456 0.34187-0.46487 0.56072-0.10031 0.20973-0.15036 0.43327-0.15036 0.67036 0 0.4833 0.2282 0.87099 0.68414 1.1628 0.45594 0.28268 1.1026 0.5056 1.9415 0.66974 0.51977 0.10943 0.93016 0.22353 1.2311 0.34207 0.31004 0.10943 0.5429 0.22819 0.69793 0.35586 0.16414 0.11854 0.26892 0.24601 0.31451 0.3828 0.04559 0.12766 0.06829 0.26446 0.06829 0.41036 0 0.34652-0.1682 0.65213-0.50559 0.91658-0.3374 0.25533-0.84386 0.3828-1.5187 0.3828-0.69303 0-1.2722-0.08611-1.7373-0.25937-0.45594-0.18238-0.87037-0.41524-1.2442-0.69793l-0.31451 0.43793c0.39211 0.27357 0.85722 0.51513 1.3952 0.72487 0.54713 0.20973 1.1624 0.31451 1.8463 0.31451 0.42859 0 0.81161-0.05006 1.149-0.15036 0.3374-0.10031 0.61969-0.23244 0.84766-0.39658 0.23709-0.17326 0.41524-0.36944 0.53378-0.58829 0.11854-0.22797 0.17793-0.46488 0.17793-0.71108 0-0.24621-0.04135-0.46508-0.12342-0.65658-0.07296-0.1915-0.21504-0.36498-0.42478-0.52-0.20061-0.16414-0.48228-0.31026-0.84703-0.43793-0.35564-0.12766-0.81608-0.25047-1.3814-0.36901-0.73863-0.15502-1.2858-0.33317-1.6414-0.53378-0.34652-0.20062-0.52-0.47421-0.52-0.82072 0-0.15502 0.0314-0.30052 0.09523-0.4373 0.06383-0.1459 0.1686-0.274 0.31451-0.38342 0.1459-0.10942 0.34208-0.19554 0.58829-0.25937 0.24621-0.07295 0.54716-0.10964 0.9028-0.10964 0.44682 0 0.85721 0.06808 1.2311 0.20487 0.37387 0.12766 0.70684 0.30115 0.99865 0.52l0.32829-0.43793c-0.31916-0.22797-0.71089-0.41948-1.176-0.57451-0.45594-0.15502-0.90302-0.23243-1.3407-0.23244zm16.43 0c-0.42859 0-0.83834 0.07741-1.2305 0.23243-0.38299 0.15502-0.72001 0.37856-1.0118 0.67036-0.2918 0.2918-0.52467 0.6568-0.69792 1.0945-0.16414 0.42859-0.24622 0.91639-0.24622 1.4635s0.08208 1.0349 0.24622 1.4635c0.17326 0.41947 0.40612 0.77514 0.69792 1.0669 0.2918 0.2918 0.62882 0.51534 1.0118 0.67036 0.39211 0.15502 0.80187 0.23243 1.2305 0.23243 0.42859 0 0.83493-0.07741 1.2179-0.23243 0.39211-0.15502 0.73441-0.37856 1.0262-0.67036 0.2918-0.2918 0.51875-0.64747 0.6829-1.0669 0.17326-0.42859 0.26-0.91639 0.26-1.4635s-0.08675-1.0349-0.26-1.4635c-0.16414-0.43771-0.39109-0.8027-0.6829-1.0945-0.2918-0.2918-0.6341-0.51534-1.0262-0.67036-0.38299-0.15502-0.78934-0.23243-1.2179-0.23243zm16.636 0c-0.42837 8e-5 -0.84321 0.08216-1.2442 0.24622-0.39211 0.15502-0.73908 0.38322-1.04 0.68414-0.30092 0.2918-0.54311 0.65214-0.72549 1.0807-0.18237 0.42859-0.27253 0.90706-0.27253 1.436 0 0.53801 0.09015 1.0211 0.27253 1.4497 0.18238 0.42859 0.42923 0.79358 0.73928 1.0945 0.31916 0.2918 0.68882 0.51534 1.1083 0.67036 0.41947 0.15502 0.86592 0.23243 1.3401 0.23243 0.58361 0 1.0714-0.07741 1.4635-0.23243 0.39211-0.16414 0.73442-0.34632 1.0262-0.54694l-0.24684-0.45171c-0.31004 0.20973-0.64239 0.38322-0.99802 0.52-0.35564 0.12766-0.7567 0.19108-1.2035 0.19108-0.38299 0-0.74799-0.05876-1.0945-0.1773-0.3374-0.12766-0.63897-0.31048-0.90342-0.54757s-0.47803-0.53338-0.64217-0.88901c-0.15501-0.35564-0.23708-0.76136-0.24622-1.2173h5.5809c0.01825-0.08207 0.02694-0.16415 0.02694-0.24622v-0.26c0-0.47418-0.06872-0.89793-0.2055-1.2718s-0.33296-0.68882-0.58828-0.94414c-0.25533-0.26445-0.56498-0.46466-0.92974-0.60145-0.36458-0.14583-0.77011-0.21921-1.2167-0.21928h-6.42e-4zm-7.446 0.0019c-0.57697 0-1.1085 0.03194-1.5957 0.09586-0.4744 0.05752-0.8981 0.13106-1.2699 0.22053v6.5758h0.61962v-6.094c0.41029-0.08308 0.95836-0.22236 1.7379-0.23745 0.59759-0.01157 1.5983 0.0233 2.0086 0.11277l0.28756-0.53942c-0.26926-0.05111-0.55686-0.08607-0.86458-0.10525s-0.61575-0.02882-0.92347-0.02882zm7.4598 0.51812c0.66568 0 1.2175 0.20488 1.6552 0.61523 0.43771 0.41035 0.67865 1.0396 0.72424 1.8877h-5.0327c0.0456-0.40123 0.15036-0.7569 0.31451-1.0669 0.16414-0.31004 0.36498-0.56964 0.60207-0.77937 0.24621-0.21885 0.51451-0.38301 0.80632-0.49243 0.30092-0.10943 0.6112-0.16414 0.93036-0.16415zm-16.65 0.01378c0.36476 0 0.70239 0.07275 1.0124 0.21865 0.31916 0.13678 0.58871 0.33762 0.80756 0.60207 0.22798 0.25533 0.40549 0.56094 0.53315 0.91658 0.12767 0.35564 0.19171 0.75203 0.19171 1.1897 0 0.42859-0.06405 0.82094-0.19171 1.1766-0.12766 0.35564-0.30518 0.66062-0.53315 0.91595-0.21885 0.25533-0.4884 0.45617-0.80756 0.60207-0.31004 0.13678-0.64768 0.20549-1.0124 0.20549-0.37387 0-0.71492-0.06872-1.025-0.20549-0.31004-0.1459-0.5796-0.34674-0.80756-0.60207-0.21886-0.25533-0.39171-0.56032-0.51938-0.91595-0.12766-0.35564-0.19233-0.74799-0.19233-1.1766 0-0.4377 0.06468-0.8341 0.19233-1.1897 0.12767-0.35564 0.30052-0.66125 0.51938-0.91658 0.22797-0.26445 0.49752-0.46529 0.80756-0.60207 0.31004-0.1459 0.65109-0.21865 1.025-0.21865zm-42.674 0.61083c0.67192 0.0067 1.311 0.09963 1.748 0.35648 1.3731 0.65947 1.1945 3.3548 1.1603 4.1293 0 0-0.70953 0.20004-1.4873 0.24872-0.74301 0.04651-1.6822 0.01889-2.2185-0.07832-0.37546-0.06807-0.8115-0.16128-1.0832-0.37026-0.26349-0.20265-0.44348-0.55331-0.5601-0.86458-0.34942-1.003-0.67537-3.0323-0.67537-3.0323s1.638-0.40372 3.1162-0.38906z"/>
    <path d="m28.923-28.852s0.08577 0.79165 0.23642 1.0279c0.136 0.21327 0.35018 0.33766 0.5702 0.42691 0.28802 0.11683 1.6874 0.15298 1.6874 0.15298s-0.0909-0.80814-0.23642-1.0987c-0.07231-0.14439-0.17262-0.28447-0.30596-0.37552-0.1126-0.07688-0.25398-0.10936-0.3894-0.12516-0.58658-0.06846-1.5623-0.0086-1.5623-0.0086z"/>
    <ellipse cx="19.041" cy="-17.179" rx="1.0892" ry="1.0794" style="paint-order:normal"/>
    <ellipse cx="25.922" cy="-17.179" rx="1.0892" ry="1.0794" style="paint-order:normal"/>
   </g>
  </g>
 </g>
</svg>
