<?xml version="1.0" encoding="UTF-8" standalone="no"?>
<svg
   xmlns:dc="http://purl.org/dc/elements/1.1/"
   xmlns:cc="http://creativecommons.org/ns#"
   xmlns:rdf="http://www.w3.org/1999/02/22-rdf-syntax-ns#"
   xmlns:svg="http://www.w3.org/2000/svg"
   xmlns="http://www.w3.org/2000/svg"
   xmlns:xlink="http://www.w3.org/1999/xlink"
   xmlns:sodipodi="http://sodipodi.sourceforge.net/DTD/sodipodi-0.dtd"
   xmlns:inkscape="http://www.inkscape.org/namespaces/inkscape"
   width="1200"
   height="80"
   version="1.1"
   viewBox="0 0 1125 75"
   id="svg260"
   sodipodi:docname="logo.svg"
   inkscape:version="0.92.1 r15371"
   inkscape:export-filename="C:\wamp2\www\bitstore-2021\www.bitstore.com.br\github\IMAGES\logo.png"
   inkscape:export-xdpi="96"
   inkscape:export-ydpi="96">
  <metadata
     id="metadata264">
    <rdf:RDF>
      <cc:Work
         rdf:about="">
        <dc:format>image/svg+xml</dc:format>
        <dc:type
           rdf:resource="http://purl.org/dc/dcmitype/StillImage" />
        <dc:title></dc:title>
      </cc:Work>
    </rdf:RDF>
  </metadata>
  <sodipodi:namedview
     pagecolor="#ffffff"
     bordercolor="#666666"
     borderopacity="1"
     objecttolerance="10"
     gridtolerance="10"
     guidetolerance="10"
     inkscape:pageopacity="0"
     inkscape:pageshadow="2"
     inkscape:window-width="1920"
     inkscape:window-height="986"
     id="namedview262"
     showgrid="false"
     inkscape:zoom="0.9166199"
     inkscape:cx="536.9746"
     inkscape:cy="-55.081565"
     inkscape:window-x="-11"
     inkscape:window-y="-11"
     inkscape:window-maximized="1"
     inkscape:current-layer="svg260" />
  <defs
     id="defs20">
    <linearGradient
       id="linearGradient7345">
      <stop
         stop-color="#0092d0"
         offset="0"
         id="stop2" />
      <stop
         stop-color="#00acf5"
         offset="1"
         id="stop4" />
    </linearGradient>
    <linearGradient
       id="linearGradient10299-1"
       x1="133.73"
       x2="122.16"
       y1="947.78003"
       y2="966.71002"
       gradientUnits="userSpaceOnUse"
       xlink:href="#linearGradient7345" />
    <linearGradient
       id="linearGradient10301-3"
       x1="233.31"
       x2="226.13"
       y1="949.02002"
       y2="962.87"
       gradientUnits="userSpaceOnUse">
      <stop
         stop-color="#0092d0"
         offset="0"
         id="stop8" />
      <stop
         stop-color="#00a5eb"
         offset="1"
         id="stop10" />
    </linearGradient>
    <linearGradient
       id="linearGradient10303-9"
       x1="121.62"
       x2="108.15"
       y1="947.53998"
       y2="967.21002"
       gradientUnits="userSpaceOnUse"
       xlink:href="#linearGradient7345" />
    <linearGradient
       id="linearGradient10305-3"
       x1="116.78"
       x2="110.13"
       y1="949.83002"
       y2="963.90002"
       gradientUnits="userSpaceOnUse">
      <stop
         stop-color="#0092d0"
         offset="0"
         id="stop14" />
      <stop
         stop-color="#00a9f0"
         offset="1"
         id="stop16" />
    </linearGradient>
    <linearGradient
       id="linearGradient10307-7"
       x1="159.69"
       x2="150.71001"
       y1="949.06"
       y2="964.92999"
       gradientUnits="userSpaceOnUse"
       xlink:href="#linearGradient7345" />
  </defs>
  <text
     x="87.504463"
     y="-49.304604"
     font-size="25px"
     letter-spacing="0px"
     word-spacing="0px"
     style="font-size:25px;line-height:1.25;font-family:purisa;letter-spacing:0px;word-spacing:0px;fill:#000000;stroke-width:0.9375"
     xml:space="preserve"
     id="text24"><tspan
       x="87.504463"
       y="-26.179604"
       id="tspan22"
       style="stroke-width:0.9375" /></text>
  <g
     id="g405"
     transform="translate(384.375,-2.3313838)">
    <g
       transform="matrix(1.0556877,0,0,1.0556877,71.238856,-36.559587)"
       id="g383">
      <path
         d="m 7.6003,54.6385 c 0.031848,-0.28673 0.28671,-0.41416 0.47785,-0.41416 0.19114,0 4.3646,-0.31857 4.3646,-0.31857 0,0 2.899,-2.899 3.2494,-3.1857 0.31857,-0.31857 0.92386,-0.22298 1.1787,-0.15927 0.03185,0 0.63716,0.19114 1.6247,0.5097 0.98758,-2.8353 2.676,-5.4158 5.7025,-5.4158 h 0.28672 c 0.82828,-1.0832 1.9114,-1.5929 2.8034,-1.5929 7.0085,0 10.386,8.7607 11.437,13.221 2.7397,0.86016 4.6831,1.4336 4.9061,1.5291 1.5291,0.47789 1.561,0.5097 1.7521,1.9433 0.15929,1.0831 4.1416,31.889 4.1416,31.889 l -30.997,5.7979 -16.821,-3.6319 c -0.031848,-0.06371 5.8619,-39.887 5.8937,-40.17 z m 12.616,-3.122 c 0.76458,0.22298 1.6884,0.5097 2.6123,0.82828 v -0.57343 c 0,-1.7203 0.223,-3.122 0.63716,-4.237 -1.5929,0.19114 -2.5804,1.9433 -3.2494,3.9822 z m 5.1928,-3.6319 c -0.41416,1.0832 -0.70085,2.6123 -0.70085,4.7149 v 0.31857 c 1.7203,0.54155 3.5361,1.0831 5.4158,1.6884 -1.0513,-4.014 -3.0583,-5.9891 -4.7149,-6.7219 z m 2.0389,-1.9751 c -0.31857,0 -0.63716,0.12743 -0.89201,0.31857 2.2619,1.0513 4.6513,3.6955 5.6388,9.0473 1.4973,0.47785 2.9309,0.89201 4.3006,1.338 -1.1469,-4.0776 -4.014,-10.704 -9.0473,-10.704 z"
         id="path26"
         inkscape:connector-curvature="0"
         style="fill:#00a9f0;stroke-width:0.31856999" />
      <path
         d="m 8.0758,54.1595 c 0.19114,0 4.3646,-0.31857 4.3646,-0.31857 0,0 2.899,-2.899 3.2494,-3.1857 0.12743,-0.12743 0.28672,-0.19114 0.41416,-0.19114 l 2.3256,47.977 -16.821,-3.6319 c 0,0 5.8937,-39.887 5.9255,-40.17 0.12743,-0.28673 0.35043,-0.41416 0.54158,-0.47788 z"
         id="path28"
         inkscape:connector-curvature="0"
         style="fill:#0079ad;stroke-width:0.31856999" />
      <g
         id="g62"
         style="fill:#0092d0"
         transform="translate(0,44.0625)">
        <g
           transform="matrix(0.34208,0,0,0.34208,-134.51,-176.08)"
           id="g50"
           style="stroke:#f0f0f0;stroke-width:0.25966001">
          <g
             transform="matrix(2.4347,0,0,2.4347,368.98,-1718.1)"
             aria-label="store"
             id="g32">
            <path
               d="m 128.5,967.72 q -3.0493,0 -5.6327,-0.93172 -2.5834,-0.97408 -4.4892,-2.287 l 1.6093,-2.287 q 1.7787,1.2705 3.8963,2.0328 2.1599,0.76232 5.0398,0.76232 2.6258,0 3.8963,-0.93172 1.3129,-0.97408 1.3129,-2.287 0,-0.59292 -0.21175,-1.1011 -0.21176,-0.50821 -0.93173,-0.97407 -0.67762,-0.46587 -1.9482,-0.88938 -1.27058,-0.42351 -3.3457,-0.84702 -4.0234,-0.84702 -6.0562,-2.2446 -1.9905,-1.4399 -1.9905,-3.7692 0,-1.2282 0.55056,-2.287 0.55057,-1.1011 1.6094,-1.8634 1.1011,-0.80467 2.6681,-1.2282 1.6094,-0.46586 3.7269,-0.46586 2.3717,0 4.5739,0.80467 2.2022,0.76232 3.7269,1.8211 l -1.694,2.2446 q -1.4399,-0.97407 -3.1763,-1.567 -1.7364,-0.59291 -3.7269,-0.59291 -2.6258,0 -3.6845,0.88937 -1.0588,0.88937 -1.0588,2.0752 0,1.3552 1.3976,2.0752 1.3976,0.67761 4.5739,1.3552 2.5834,0.55056 4.2351,1.1858 1.6517,0.59292 2.5834,1.3552 0.97407,0.76231 1.3129,1.694 0.38116,0.93172 0.38116,2.1176 0,1.2705 -0.59291,2.3717 -0.59292,1.1011 -1.7788,1.9482 -1.1435,0.84703 -2.8799,1.3129 -1.694,0.50821 -3.8963,0.50821 z"
               id="path30"
               inkscape:connector-curvature="0"
               style="fill:url(#linearGradient10299-1);stroke:#f0f0f0;stroke-width:0.25966001" />
          </g>
          <g
             transform="matrix(2.4347,0,0,2.4347,396.48,-1718.1)"
             aria-label="store"
             id="g36">
            <path
               d="m 230.92,967.72 q -2.3293,0 -4.3622,-0.71997 -1.9905,-0.71997 -3.5151,-2.1176 -1.4823,-1.3976 -2.3717,-3.3881 -0.84702,-2.0328 -0.84702,-4.6163 0,-2.4987 0.84702,-4.4892 0.88937,-1.9905 2.3293,-3.3881 1.4823,-1.3976 3.3457,-2.1176 1.9058,-0.76232 3.981,-0.76232 2.2023,0 3.9387,0.71996 1.7787,0.67762 2.9646,1.9482 1.2282,1.2705 1.8634,3.0493 0.63527,1.7788 0.63527,3.9386 0,0.59292 -0.0424,1.1435 -0.0423,0.55057 -0.12705,0.97408 h -16.22 q 0.3388,3.5151 2.5411,5.2939 2.2446,1.7364 5.4633,1.7364 1.8634,0 3.3457,-0.50821 1.5246,-0.55057 2.9222,-1.4399 l 1.2705,2.287 q -1.5246,1.0164 -3.5151,1.7364 -1.9482,0.71997 -4.4469,0.71997 z m -0.50821,-18.846 q -1.2705,0 -2.4564,0.42351 -1.1435,0.42351 -2.0752,1.2282 -0.93172,0.76232 -1.567,1.9482 -0.63528,1.18588 -0.88937,2.7105 h 13.129 q -0.21175,-3.1763 -1.8634,-4.7433 -1.6093,-1.567 -4.2775,-1.567 z"
               id="path34"
               inkscape:connector-curvature="0"
               style="fill:url(#linearGradient10301-3);stroke:#f0f0f0;stroke-width:0.25966001" />
          </g>
          <g
             transform="matrix(2.4347,0,0,2.4347,605.58,-1718)"
             aria-label="store"
             id="g40">
            <path
               d="m 108.15,967.21 v -20.583 h 3.1811 l -0.005,4.8704 h 0.12705 c 1.0729,-1.6658 2.3858,-2.9787 3.9386,-3.9386 1.5811,-0.95995 3.3316,-1.4399 5.2515,-1.4399 0.76232,0 1.4682,0.0706 2.1176,0.21175 0.64939,0.11294 1.2988,0.3247 1.9482,0.63527 l -0.80467,3.0069 c -0.73409,-0.25411 -1.3552,-0.43763 -1.8634,-0.55057 -0.47998,-0.11293 -1.1294,-0.1694 -1.9482,-0.1694 -1.5529,0 -3.0493,0.45174 -4.4892,1.3552 -1.4117,0.87526 -2.7387,2.3858 -3.981,4.5316 v 12.07 z"
               id="path38"
               inkscape:connector-curvature="0"
               style="fill:url(#linearGradient10303-9);stroke:#f0f0f0;stroke-width:0.25966001" />
          </g>
          <g
             transform="matrix(2.4347,0,0,2.4347,545.44,-1718.1)"
             aria-label="store"
             id="g44">
            <path
               d="m 113.68,967.72 q -2.0328,0 -3.8963,-0.71997 -1.8211,-0.71997 -3.2187,-2.0752 -1.3976,-1.3976 -2.2446,-3.3881 -0.80467,-2.0328 -0.80467,-4.5739 0,-2.5834 0.80467,-4.5739 0.84702,-2.0328 2.2446,-3.4304 1.39758,-1.3976 3.2187,-2.1176 1.8634,-0.71996 3.8963,-0.71996 2.0329,0 3.854,0.71996 1.8634,0.71997 3.261,2.1176 1.3976,1.3976 2.2023,3.4304 0.84702,1.9905 0.84702,4.5739 0,2.5411 -0.84702,4.5739 -0.80467,1.9905 -2.2023,3.3881 -1.3976,1.3552 -3.261,2.0752 -1.8211,0.71997 -3.854,0.71997 z m 0,-2.8799 q 1.4823,0 2.6681,-0.55057 1.2282,-0.59291 2.0752,-1.6093 0.88938,-1.0588 1.3552,-2.4987 0.46586,-1.4399 0.46586,-3.2187 0,-1.7787 -0.46586,-3.2187 -0.46586,-1.4823 -1.3552,-2.5411 -0.84702,-1.0588 -2.0752,-1.6093 -1.1858,-0.59292 -2.6681,-0.59292 -1.4823,0 -2.7105,0.59292 -1.1858,0.55056 -2.0752,1.6093 -0.84702,1.0588 -1.3129,2.5411 -0.46587,1.4399 -0.46587,3.2187 0,1.7788 0.46587,3.2187 0.46586,1.4399 1.3129,2.4987 0.88937,1.0164 2.0752,1.6093 1.2282,0.55057 2.7105,0.55057 z"
               id="path42"
               inkscape:connector-curvature="0"
               style="fill:url(#linearGradient10305-3);stroke:#f0f0f0;stroke-width:0.25966001" />
          </g>
          <g
             transform="matrix(2.4347,0,0,2.4347,376.18,-1719.4)"
             aria-label="store"
             id="g48">
            <path
               d="m 157.45,967.72 c -1.4964,0 -2.7528,-0.19764 -3.7692,-0.59292 -1.0164,-0.42351 -1.8352,-1.0023 -2.4564,-1.7364 -0.62115,-0.76232 -1.0729,-1.6658 -1.3552,-2.7105 -0.25411,-1.0447 -0.38116,-2.2023 -0.38116,-3.4728 v -9.7408 h -5.8021 v -2.8197 h 5.9292 l 0.0264,-6.6246 h 3.3193 v 6.6246 h 10.122 v 2.8197 h -10.122 v 9.7831 c 0,0.93173 0.0847,1.7505 0.25411,2.4564 0.1694,0.67761 0.45174,1.2564 0.84702,1.7364 0.39527,0.47998 0.93172,0.84702 1.6093,1.1011 0.67762,0.22587 1.5105,0.33881 2.4987,0.33881 0.9882,0 1.8776,-0.0847 2.6681,-0.25411 0.7905,-0.16941 1.5529,-0.39528 2.287,-0.67762 l 0.76232,2.5411 c -0.93172,0.33881 -1.9199,0.62115 -2.9646,0.84702 -1.0164,0.25411 -2.174,0.38116 -3.4728,0.38116 z"
               id="path46"
               inkscape:connector-curvature="0"
               style="fill:url(#linearGradient10307-7);stroke:#f0f0f0;stroke-width:0.25966001" />
          </g>
        </g>
        <g
           id="g60"
           style="stroke-width:0.34208">
          <rect
             x="81.153999"
             y="24.316999"
             width="2.6956999"
             height="2.6956999"
             id="rect52" />
          <rect
             x="78.239998"
             y="24.316999"
             width="2.6956999"
             height="2.6956999"
             id="rect54" />
          <rect
             x="72.401001"
             y="18.481001"
             width="2.6956999"
             height="2.6956999"
             id="rect56" />
          <rect
             x="75.315002"
             y="18.481001"
             width="2.6956999"
             height="2.6956999"
             id="rect58" />
        </g>
      </g>
      <g
         id="g78"
         style="stroke-width:0.34208"
         transform="translate(0,44.0625)">
        <rect
           x="78.242996"
           y="38.924"
           width="2.6956999"
           height="2.6956999"
           id="rect64"
           style="fill:#00affa" />
        <rect
           x="72.411003"
           y="21.403"
           width="2.6956999"
           height="2.6956999"
           id="rect66"
           style="fill:#0096d6" />
        <rect
           x="72.411003"
           y="24.323999"
           width="2.6956999"
           height="2.6956999"
           id="rect68"
           style="fill:#0092d0" />
        <rect
           x="72.411003"
           y="27.246"
           width="2.6956999"
           height="2.6956999"
           id="rect70"
           style="fill:#009ee0" />
        <rect
           x="72.411003"
           y="30.163"
           width="2.6956999"
           height="2.6956999"
           id="rect72"
           style="fill:#00a1e5" />
        <rect
           x="72.411003"
           y="33.084999"
           width="2.6956999"
           height="2.6956999"
           id="rect74"
           style="fill:#00a5eb" />
        <rect
           x="72.411003"
           y="35.992001"
           width="2.6956999"
           height="2.6956999"
           id="rect76"
           style="fill:#00a9f0" />
      </g>
      <g
         transform="matrix(0.34208,0,0,0.34208,-134.51,-132.0175)"
         id="g90"
         style="fill:#0092d0">
        <rect
           x="613.40002"
           y="577.29999"
           width="7.8801999"
           height="7.8801999"
           id="rect80" />
        <rect
           x="613.40002"
           y="585.84003"
           width="7.8801999"
           height="7.8801999"
           id="rect82" />
        <rect
           x="613.40002"
           y="594.38"
           width="7.8801999"
           height="7.8801999"
           id="rect84" />
        <rect
           x="613.40002"
           y="602.90997"
           width="7.8801999"
           height="7.8801999"
           id="rect86" />
        <rect
           x="613.40002"
           y="611.45001"
           width="7.8801999"
           height="7.8801999"
           id="rect88" />
      </g>
      <rect
         x="75.321999"
         y="80.065498"
         width="2.6956999"
         height="2.6956999"
         id="rect92"
         style="fill:#00a9f0;stroke-width:0.34208" />
      <rect
         x="75.321999"
         y="82.986496"
         width="2.6956999"
         height="2.6956999"
         id="rect94"
         style="fill:#00acf5;stroke-width:0.34208" />
      <g
         transform="matrix(0.34208,0,0,0.34208,-134.51,-132.0175)"
         id="g108"
         style="fill:#0092d0">
        <rect
           x="596.34998"
           y="585.79999"
           width="7.8801999"
           height="7.8801999"
           id="rect96" />
        <rect
           x="587.83002"
           y="585.79999"
           width="7.8801999"
           height="7.8801999"
           id="rect98" />
        <rect
           x="556.12"
           y="586.01001"
           width="7.8801999"
           height="7.8801999"
           id="rect100" />
        <rect
           x="556.12"
           y="603.09003"
           width="7.8801999"
           height="7.8801999"
           id="rect102" />
        <rect
           x="556.12"
           y="611.62"
           width="7.8801999"
           height="7.8801999"
           id="rect104" />
        <rect
           x="556.12"
           y="620.15997"
           width="7.8801999"
           height="7.8801999"
           id="rect106" />
      </g>
      <rect
         x="55.728001"
         y="83.0485"
         width="2.6956999"
         height="2.6956999"
         id="rect110"
         style="fill:#00a5eb;stroke-width:0.34208" />
      <rect
         x="52.813"
         y="68.444504"
         width="2.6956999"
         height="2.6956999"
         id="rect112"
         style="fill:#0092d0;stroke-width:0.34208" />
      <g
         transform="matrix(0.34208,0,0,0.34208,-134.51,-132.0175)"
         id="g122"
         style="fill:#00a5eb">
        <rect
           x="547.59998"
           y="603.09003"
           width="7.8801999"
           height="7.8801999"
           id="rect114" />
        <rect
           x="547.59998"
           y="611.62"
           width="7.8801999"
           height="7.8801999"
           id="rect116" />
        <rect
           x="547.59998"
           y="620.15997"
           width="7.8801999"
           height="7.8801999"
           id="rect118" />
        <rect
           x="547.59998"
           y="628.70001"
           width="7.8801999"
           height="7.8801999"
           id="rect120" />
      </g>
      <g
         transform="matrix(0.88062,0,0,0.88062,-3.5036,-1175.8375)"
         id="g258"
         style="fill:#ffffff">
        <path
           d="m 36.487,1411.2 -2.6096,1.5155 v 3.0614 l 2.6096,-1.5189 z"
           id="path124"
           inkscape:connector-curvature="0" />
        <path
           d="m 39.322,1409.6 -2.6097,1.5155 v 3.0614 l 2.6097,-1.5189 z"
           id="path126"
           inkscape:connector-curvature="0" />
        <path
           d="m 42.156,1407.9 -2.6096,1.5155 v 3.0614 l 2.6096,-1.5189 z"
           id="path128"
           inkscape:connector-curvature="0" />
        <path
           d="m 44.991,1406.3 -2.6096,1.5155 v 3.0614 l 2.6096,-1.5189 z"
           id="path130"
           inkscape:connector-curvature="0" />
        <path
           d="m 47.827,1404.6 -2.6096,1.5155 v 3.0614 l 2.6096,-1.5189 z"
           id="path132"
           inkscape:connector-curvature="0" />
        <path
           d="m 36.487,1414.6 -2.6096,1.5155 v 3.0614 l 2.6096,-1.5189 z"
           id="path134"
           inkscape:connector-curvature="0" />
        <path
           d="m 39.322,1412.9 -2.6097,1.5155 v 3.0614 l 2.6097,-1.5189 z"
           id="path136"
           inkscape:connector-curvature="0" />
        <path
           d="m 47.827,1408 -2.6096,1.5155 v 3.0614 l 2.6096,-1.5189 z"
           id="path138"
           inkscape:connector-curvature="0" />
        <path
           d="m 50.661,1406.3 -2.6096,1.5155 v 3.0614 l 2.6096,-1.5189 z"
           id="path140"
           inkscape:connector-curvature="0" />
        <path
           d="m 36.487,1417.9 -2.6096,1.5155 v 3.0614 l 2.6096,-1.5189 z"
           id="path142"
           inkscape:connector-curvature="0" />
        <path
           d="m 39.322,1416.2 -2.6097,1.5155 v 3.0614 l 2.6097,-1.5189 z"
           id="path144"
           inkscape:connector-curvature="0" />
        <path
           d="m 47.827,1411.3 -2.6096,1.5155 v 3.0614 l 2.6096,-1.5189 z"
           id="path146"
           inkscape:connector-curvature="0" />
        <path
           d="m 50.661,1409.7 -2.6096,1.5155 v 3.0614 l 2.6096,-1.5189 z"
           id="path148"
           inkscape:connector-curvature="0" />
        <path
           d="m 47.827,1414.6 -2.6096,1.5155 v 3.0614 l 2.6096,-1.5189 z"
           id="path150"
           inkscape:connector-curvature="0" />
        <path
           d="m 50.661,1413 -2.6096,1.5155 v 3.0614 l 2.6096,-1.5189 z"
           id="path152"
           inkscape:connector-curvature="0" />
        <path
           d="m 42.148,1421.3 -2.6096,1.5155 v 3.0614 l 2.6096,-1.5189 z"
           id="path154"
           inkscape:connector-curvature="0" />
        <path
           d="m 44.991,1419.6 -2.6096,1.5155 v 3.0614 l 2.6096,-1.5189 z"
           id="path156"
           inkscape:connector-curvature="0" />
        <path
           d="m 47.827,1417.9 -2.6096,1.5155 v 3.0614 l 2.6096,-1.5189 z"
           id="path158"
           inkscape:connector-curvature="0" />
        <path
           d="m 36.487,1427.9 -2.6096,1.5155 v 3.0614 l 2.6096,-1.5189 z"
           id="path160"
           inkscape:connector-curvature="0" />
        <path
           d="m 39.322,1426.2 -2.6097,1.5155 v 3.0614 l 2.6097,-1.5189 z"
           id="path162"
           inkscape:connector-curvature="0" />
        <path
           d="m 47.827,1421.3 -2.6096,1.5155 v 3.0614 l 2.6096,-1.5189 z"
           id="path164"
           inkscape:connector-curvature="0" />
        <path
           d="m 50.661,1419.6 -2.6096,1.5155 v 3.0614 l 2.6096,-1.5189 z"
           id="path166"
           inkscape:connector-curvature="0" />
        <path
           d="m 47.827,1424.6 -2.6096,1.5155 v 3.0614 l 2.6096,-1.5189 z"
           id="path168"
           inkscape:connector-curvature="0" />
        <path
           d="m 50.661,1423 -2.6096,1.5155 v 3.0614 l 2.6096,-1.5189 z"
           id="path170"
           inkscape:connector-curvature="0" />
        <path
           d="m 47.827,1427.9 -2.6096,1.5155 v 3.0614 l 2.6096,-1.5189 z"
           id="path172"
           inkscape:connector-curvature="0" />
        <path
           d="m 50.661,1426.3 -2.6096,1.5155 v 3.0614 l 2.6096,-1.5189 z"
           id="path174"
           inkscape:connector-curvature="0" />
        <path
           d="m 36.487,1437.8 -2.6096,1.5155 v 3.0614 l 2.6096,-1.5189 z"
           id="path176"
           inkscape:connector-curvature="0" />
        <path
           d="m 39.322,1436.2 -2.6097,1.5155 v 3.0614 l 2.6097,-1.5189 z"
           id="path178"
           inkscape:connector-curvature="0" />
        <path
           d="m 42.156,1434.5 -2.6096,1.5155 v 3.0614 l 2.6096,-1.5189 z"
           id="path180"
           inkscape:connector-curvature="0" />
        <path
           d="m 44.991,1432.9 -2.6096,1.5155 v 3.0614 l 2.6096,-1.5189 z"
           id="path182"
           inkscape:connector-curvature="0" />
        <path
           d="m 47.827,1431.3 -2.6096,1.5155 v 3.0614 l 2.6096,-1.5189 z"
           id="path184"
           inkscape:connector-curvature="0" />
        <path
           d="m 50.661,1429.6 -2.6096,1.5155 v 3.0614 l 2.6096,-1.5189 z"
           id="path186"
           inkscape:connector-curvature="0" />
        <path
           d="m 30.926,1411.2 2.6586,1.5155 v 3.0614 l -2.6586,-1.5189 z"
           id="path188"
           inkscape:connector-curvature="0" />
        <path
           d="m 30.926,1414.5 2.6586,1.5155 v 3.0614 l -2.6586,-1.5189 z"
           id="path190"
           inkscape:connector-curvature="0" />
        <path
           d="m 30.926,1417.9 2.6586,1.5155 v 3.0614 l -2.6586,-1.5189 z"
           id="path192"
           inkscape:connector-curvature="0" />
        <path
           d="m 30.926,1421.2 2.6586,1.5155 v 3.0614 l -2.6586,-1.5189 z"
           id="path194"
           inkscape:connector-curvature="0" />
        <path
           d="m 30.926,1424.5 2.6586,1.5155 v 3.0614 l -2.6586,-1.5189 z"
           id="path196"
           inkscape:connector-curvature="0" />
        <path
           d="m 30.926,1427.8 2.6586,1.5155 v 3.0614 l -2.6586,-1.5189 z"
           id="path198"
           inkscape:connector-curvature="0" />
        <path
           d="m 30.926,1431.2 2.6586,1.5155 v 3.0614 l -2.6586,-1.5189 z"
           id="path200"
           inkscape:connector-curvature="0" />
        <path
           d="m 30.926,1434.5 2.6586,1.5155 v 3.0614 l -2.6586,-1.5189 z"
           id="path202"
           inkscape:connector-curvature="0" />
        <path
           d="m 30.926,1437.8 2.6586,1.5155 v 3.0614 l -2.6586,-1.5189 z"
           id="path204"
           inkscape:connector-curvature="0" />
        <path
           d="m 36.378,1411.1 -2.6111,1.513 -2.6575,-1.5198 2.614,-1.5113 z"
           id="path206"
           inkscape:connector-curvature="0" />
        <path
           d="m 39.214,1409.4 -2.611,1.513 -2.6576,-1.5198 2.6141,-1.5113 z"
           id="path208"
           inkscape:connector-curvature="0" />
        <path
           d="m 42.051,1407.8 -2.6111,1.5129 -2.6575,-1.5197 2.614,-1.5113 z"
           id="path210"
           inkscape:connector-curvature="0" />
        <path
           d="m 44.894,1406.1 -2.6111,1.5129 -2.6575,-1.5198 2.614,-1.5112 z"
           id="path212"
           inkscape:connector-curvature="0" />
        <path
           d="m 47.731,1404.5 -2.611,1.513 -2.6576,-1.5198 2.6141,-1.5113 z"
           id="path214"
           inkscape:connector-curvature="0" />
        <path
           d="m 48.052,1404.5 v 3.0614 l 2.6096,-1.5189 z"
           id="path216"
           inkscape:connector-curvature="0" />
        <path
           d="m 42.268,1417.8 2.6096,1.5425 -2.6182,1.5272 -2.6097,-1.5425 z"
           id="path218"
           inkscape:connector-curvature="0" />
        <path
           d="m 42.382,1414.6 2.6096,1.5425 v 3.0513 l -2.6096,-1.5425 z"
           id="path220"
           inkscape:connector-curvature="0" />
        <path
           d="m 44.991,1412.9 -2.5075,1.4597 2.5075,1.4708 z"
           id="path222"
           inkscape:connector-curvature="0" />
        <path
           d="m 48.052,1417.8 v 3.0614 l 2.6096,-1.5189 z"
           id="path224"
           inkscape:connector-curvature="0" />
        <path
           d="m 39.532,1419.6 v 2.9149 l 2.4833,-1.442 z"
           id="path226"
           inkscape:connector-curvature="0" />
        <path
           d="m 42.268,1431.1 2.6096,1.5425 -2.6182,1.5272 -2.6097,-1.5425 z"
           id="path228"
           inkscape:connector-curvature="0" />
        <path
           d="m 42.382,1424.6 2.6096,1.5425 v 3.0513 l -2.6096,-1.5425 z"
           id="path230"
           inkscape:connector-curvature="0" />
        <path
           d="m 44.991,1422.9 -2.5075,1.4597 2.5075,1.4708 z"
           id="path232"
           inkscape:connector-curvature="0" />
        <path
           d="m 42.382,1427.9 2.6096,1.5425 v 3.0513 l -2.6096,-1.5425 z"
           id="path234"
           inkscape:connector-curvature="0" />
        <path
           d="m 36.487,1431.2 -2.6096,1.5155 v 3.0614 l 2.6096,-1.5189 z"
           id="path236"
           inkscape:connector-curvature="0" />
        <path
           d="m 39.322,1429.5 -2.6097,1.5155 v 3.0614 l 2.6097,-1.5189 z"
           id="path238"
           inkscape:connector-curvature="0" />
        <path
           d="m 36.487,1434.5 -2.6096,1.5155 v 3.0614 l 2.6096,-1.5189 z"
           id="path240"
           inkscape:connector-curvature="0" />
        <path
           d="m 39.322,1432.9 -2.6097,1.5155 v 3.0614 l 2.6097,-1.5189 z"
           id="path242"
           inkscape:connector-curvature="0" />
        <path
           d="m 36.487,1421.3 -2.6096,1.5155 v 3.0614 l 2.6096,-1.5189 z"
           id="path244"
           inkscape:connector-curvature="0" />
        <path
           d="m 39.322,1419.7 -2.6097,1.5155 v 3.0614 l 2.6097,-1.5189 z"
           id="path246"
           inkscape:connector-curvature="0" />
        <path
           d="m 36.487,1424.6 -2.6096,1.5155 v 3.0614 l 2.6096,-1.5189 z"
           id="path248"
           inkscape:connector-curvature="0" />
        <path
           d="m 39.322,1423 -2.6097,1.5155 v 3.0614 l 2.6097,-1.5189 z"
           id="path250"
           inkscape:connector-curvature="0" />
        <path
           d="m 39.532,1432.9 v 2.9149 l 2.4833,-1.442 z"
           id="path252"
           inkscape:connector-curvature="0" />
        <path
           d="m 42.382,1411.3 2.6096,1.5425 v 3.0513 l -2.6096,-1.5425 z"
           id="path254"
           inkscape:connector-curvature="0" />
        <path
           d="m 44.991,1409.6 -2.5075,1.4597 2.5075,1.4708 z"
           id="path256"
           inkscape:connector-curvature="0" />
      </g>
    </g>
    <g
       id="text387"
       style="font-style:normal;font-variant:normal;font-weight:normal;font-stretch:normal;font-size:16.6991539px;line-height:1.25;font-family:'Eras Light ITC';-inkscape-font-specification:'Eras Light ITC';letter-spacing:0px;word-spacing:0px;fill:#000000;fill-opacity:1;stroke:none;stroke-width:1.04369712"
       aria-label="font code">
      <path
         id="path261"
         style="font-style:normal;font-variant:normal;font-weight:normal;font-stretch:normal;font-family:'Eras Light ITC';-inkscape-font-specification:'Eras Light ITC';stroke-width:1.04369712"
         d="m 218.07547,71.945885 0.14677,-2.886475 0.14677,-4.89233 h -1.03554 q 0.0326,-0.220155 0.0408,-0.456618 h 1.01108 q 0.0408,-1.182313 0.0652,-1.38616 0.0489,-0.432156 0.14677,-0.676772 0.0978,-0.252771 0.25277,-0.432156 0.15493,-0.179386 0.4077,-0.326156 0.26092,-0.154923 0.60339,-0.236462 0.34246,-0.08154 0.79092,-0.08154 0.26093,0 0.53,0.03261 0.27724,0.03262 0.75016,0.130463 0.0163,0.244616 0.0734,0.562618 -0.76647,-0.269079 -1.39432,-0.269079 -0.35061,0 -0.636,0.09785 -0.27723,0.08969 -0.44846,0.220155 -0.17124,0.130462 -0.29354,0.334309 -0.11416,0.203847 -0.17124,0.448464 -0.0571,0.244616 -0.0815,0.725695 0,0.09785 -0.0245,0.856158 h 2.42986 q -0.0326,0.212001 -0.0408,0.456618 h -2.40539 l -0.18754,7.778805 q -0.212,-0.0082 -0.34247,-0.0082 -0.1223,0 -0.33431,0.0082 z"
         inkscape:connector-curvature="0" />
      <path
         id="path263"
         style="font-style:normal;font-variant:normal;font-weight:normal;font-stretch:normal;font-family:'Eras Light ITC';-inkscape-font-specification:'Eras Light ITC';stroke-width:1.04369712"
         d="m 225.8869,63.539231 q 0.75831,0 1.46769,0.212001 0.70939,0.212001 1.24755,0.725695 0.54631,0.505541 0.8317,1.329083 0.28538,0.823543 0.28538,1.744931 0,0.994774 -0.30169,1.908009 -0.3017,0.913235 -0.85616,1.53293 -0.55446,0.611542 -1.30462,0.864312 -0.74201,0.25277 -1.58186,0.25277 -0.58708,0 -1.15785,-0.138616 -0.56261,-0.130462 -1.06,-0.448463 -0.48923,-0.318002 -0.86431,-0.823543 -0.36693,-0.50554 -0.56262,-1.19862 -0.18754,-0.693081 -0.18754,-1.443238 0,-1.312775 0.48923,-2.397242 0.48924,-1.09262 1.45955,-1.606315 0.97846,-0.513694 2.09555,-0.513694 z m -0.0163,0.456617 q -0.97031,0 -1.80201,0.472925 -0.8317,0.472926 -1.22308,1.443238 -0.39139,0.970312 -0.39139,2.128163 0,0.815389 0.22016,1.532931 0.2283,0.717541 0.72569,1.214928 0.49739,0.489233 1.06816,0.684926 0.57893,0.18754 1.21493,0.18754 0.72569,0 1.3617,-0.236463 0.636,-0.236462 1.11708,-0.790927 0.48923,-0.554464 0.71754,-1.361698 0.22831,-0.807235 0.22831,-1.712316 0,-0.83985 -0.22831,-1.573699 -0.22015,-0.742004 -0.69308,-1.182313 -0.47292,-0.448464 -1.07631,-0.627849 -0.60339,-0.179386 -1.23939,-0.179386 z"
         inkscape:connector-curvature="0" />
      <path
         id="path265"
         style="font-style:normal;font-variant:normal;font-weight:normal;font-stretch:normal;font-family:'Eras Light ITC';-inkscape-font-specification:'Eras Light ITC';stroke-width:1.04369712"
         d="m 231.456,71.945885 0.27723,-4.982023 0.0734,-2.340165 q 0.0163,-0.627849 0.0163,-0.913235 0.212,0.0082 0.318,0.0082 0.0978,0 0.30985,-0.0082 l -0.106,1.859086 q 0.17939,-0.383233 0.29354,-0.578926 0.12231,-0.203847 0.32616,-0.432156 0.20384,-0.228309 0.48108,-0.424002 0.28538,-0.203847 0.67677,-0.334309 0.39954,-0.138616 0.81539,-0.195693 0.41584,-0.06523 0.82354,-0.06523 0.68493,0 1.32908,0.154923 0.64416,0.154924 1.06816,0.538157 0.424,0.375078 0.57893,0.872465 0.16307,0.489233 0.16307,1.051851 0,0.252771 -0.0245,0.750158 l -0.17123,3.710017 -0.0326,1.329083 q -0.16308,-0.0082 -0.31801,-0.0082 -0.15492,0 -0.30984,0.0082 0.0815,-1.019236 0.13046,-1.948779 l 0.11415,-2.087394 q 0.0652,-1.157851 0.0652,-1.671546 0,-0.538156 -0.15492,-0.962158 -0.15492,-0.424002 -0.53816,-0.701234 -0.37507,-0.285386 -0.89692,-0.407694 -0.52185,-0.130463 -1.07632,-0.130463 -0.77461,0 -1.36985,0.212001 -0.56262,0.203848 -0.98662,0.603388 -0.424,0.391386 -0.69308,0.994774 -0.20385,0.440309 -0.30985,1.231236 -0.0978,0.684926 -0.16307,2.242318 -0.0571,1.549238 -0.0571,2.625551 -0.212,-0.0082 -0.32616,-0.0082 -0.11415,0 -0.32615,0.0082 z"
         inkscape:connector-curvature="0" />
      <path
         id="path267"
         style="font-style:normal;font-variant:normal;font-weight:normal;font-stretch:normal;font-family:'Eras Light ITC';-inkscape-font-specification:'Eras Light ITC';stroke-width:1.04369712"
         d="m 244.34729,71.43219 q -0.0652,0.244617 -0.0978,0.513695 -0.66046,0.163077 -1.21493,0.163077 -0.46477,0 -0.83169,-0.106 -0.35877,-0.09785 -0.58708,-0.358771 -0.22831,-0.269078 -0.3017,-0.58708 -0.0734,-0.326155 -0.0734,-0.69308 0,-0.06523 0,-0.203847 0.008,-0.138616 0.0326,-0.611541 l 0.26908,-5.397871 h -1.00293 q 0.0326,-0.220155 0.0408,-0.44031 h 0.99478 q 0.0408,-0.513695 0.0652,-1.53293 0.30985,-0.04077 0.53816,-0.106001 -0.0571,1.32093 -0.0571,1.638931 h 2.44616 q -0.0326,0.220155 -0.0408,0.44031 h -2.42985 l -0.26908,5.593564 -0.008,0.334309 q 0,0.684927 0.15493,0.994774 0.16308,0.309848 0.44846,0.448464 0.29354,0.138616 0.60339,0.138616 0.22015,0 0.46477,-0.03262 0.25277,-0.04077 0.85616,-0.195693 z"
         inkscape:connector-curvature="0" />
      <path
         id="path269"
         style="font-style:normal;font-variant:normal;font-weight:normal;font-stretch:normal;font-family:'Eras Light ITC';-inkscape-font-specification:'Eras Light ITC';stroke-width:1.04369712"
         d="m 255.47734,71.293574 q -0.0815,0.334309 -0.11415,0.619695 -1.03555,0.203847 -1.93248,0.203847 -0.848,0 -1.59,-0.236462 -0.73385,-0.236463 -1.26385,-0.758312 -0.53001,-0.530002 -0.79093,-1.320929 -0.25277,-0.79908 -0.25277,-1.671546 0,-1.190467 0.39954,-2.26678 0.40769,-1.076312 1.28831,-1.696007 0.88878,-0.627849 2.39724,-0.627849 1.10078,0 2.09555,0.301693 0.008,0.269078 0.0571,0.570772 -0.848,-0.260924 -1.32908,-0.334309 -0.48108,-0.08154 -0.88062,-0.08154 -0.85616,0 -1.51663,0.334309 -0.66046,0.326156 -1.10077,0.929543 -0.43216,0.603387 -0.6197,1.353545 -0.17938,0.742003 -0.17938,1.49216 0,0.807235 0.20385,1.508469 0.20384,0.701234 0.65231,1.141544 0.44846,0.440309 1.10077,0.676772 0.65231,0.228309 1.36985,0.228309 0.39954,0 0.84801,-0.07339 0.44846,-0.08154 1.15785,-0.29354 z"
         inkscape:connector-curvature="0" />
      <path
         id="path271"
         style="font-style:normal;font-variant:normal;font-weight:normal;font-stretch:normal;font-family:'Eras Light ITC';-inkscape-font-specification:'Eras Light ITC';stroke-width:1.04369712"
         d="m 261.20952,63.539231 q 0.75831,0 1.4677,0.212001 0.70939,0.212001 1.24754,0.725695 0.54631,0.505541 0.8317,1.329083 0.28539,0.823543 0.28539,1.744931 0,0.994774 -0.3017,1.908009 -0.30169,0.913235 -0.85616,1.53293 -0.55446,0.611542 -1.30462,0.864312 -0.742,0.25277 -1.58185,0.25277 -0.58708,0 -1.15785,-0.138616 -0.56262,-0.130462 -1.06001,-0.448463 -0.48923,-0.318002 -0.86431,-0.823543 -0.36692,-0.50554 -0.56262,-1.19862 -0.18754,-0.693081 -0.18754,-1.443238 0,-1.312775 0.48924,-2.397242 0.48923,-1.09262 1.45954,-1.606315 0.97847,-0.513694 2.09555,-0.513694 z m -0.0163,0.456617 q -0.97031,0 -1.80201,0.472925 -0.83169,0.472926 -1.22308,1.443238 -0.39138,0.970312 -0.39138,2.128163 0,0.815389 0.22015,1.532931 0.22831,0.717541 0.7257,1.214928 0.49738,0.489233 1.06815,0.684926 0.57893,0.18754 1.21493,0.18754 0.7257,0 1.3617,-0.236463 0.63601,-0.236462 1.11708,-0.790927 0.48924,-0.554464 0.71755,-1.361698 0.2283,-0.807235 0.2283,-1.712316 0,-0.83985 -0.2283,-1.573699 -0.22016,-0.742004 -0.69308,-1.182313 -0.47293,-0.448464 -1.07632,-0.627849 -0.60338,-0.179386 -1.23939,-0.179386 z"
         inkscape:connector-curvature="0" />
      <path
         id="path273"
         style="font-style:normal;font-variant:normal;font-weight:normal;font-stretch:normal;font-family:'Eras Light ITC';-inkscape-font-specification:'Eras Light ITC';stroke-width:1.04369712"
         d="m 273.8725,71.945885 q -0.212,-0.0082 -0.318,-0.0082 -0.11416,0 -0.32616,0.0082 l 0.12231,-2.071087 q -0.19569,0.472925 -0.36692,0.750158 -0.16308,0.277232 -0.424,0.54631 -0.25278,0.260924 -0.6197,0.472925 -0.36692,0.212001 -0.848,0.342463 -0.48108,0.130462 -0.99478,0.130462 -0.79092,0 -1.484,-0.285386 -0.68493,-0.285386 -1.16601,-0.807234 -0.47293,-0.530003 -0.68493,-1.214929 -0.20384,-0.69308 -0.20384,-1.459545 0,-1.035543 0.38323,-1.997702 0.38323,-0.962158 1.10893,-1.614469 0.73385,-0.660464 1.65524,-0.929542 0.92954,-0.269078 1.95693,-0.269078 0.83985,0 1.83462,0.179385 0.0408,-0.774619 0.0408,-1.484007 0,-0.627849 -0.0245,-1.418776 0.212,0.0082 0.34246,0.0082 0.13046,0 0.33431,-0.0082 -0.0897,1.524777 -0.13861,3.196323 l -0.11416,3.94648 q -0.0652,2.266779 -0.0652,2.984321 z m -0.39954,-7.664651 q -0.57893,-0.179385 -1.00293,-0.228309 -0.424,-0.05708 -0.80723,-0.05708 -0.91324,0 -1.74493,0.260924 -0.8317,0.260925 -1.45139,0.848004 -0.6197,0.58708 -0.96216,1.484007 -0.33431,0.896927 -0.33431,1.769393 0,0.962158 0.36692,1.753085 0.37508,0.790927 1.05185,1.174159 0.68493,0.375079 1.52478,0.375079 0.49739,0 0.90508,-0.114155 0.41585,-0.122308 0.742,-0.334309 0.33431,-0.212001 0.62785,-0.562618 0.3017,-0.358771 0.52185,-0.83985 0.22831,-0.481079 0.33431,-1.051851 0.106,-0.570772 0.14677,-1.753085 z"
         inkscape:connector-curvature="0" />
      <path
         id="path275"
         style="font-style:normal;font-variant:normal;font-weight:normal;font-stretch:normal;font-family:'Eras Light ITC';-inkscape-font-specification:'Eras Light ITC';stroke-width:1.04369712"
         d="m 282.41777,71.154958 q -0.0652,0.301694 -0.0978,0.611541 -0.67678,0.195693 -1.21493,0.269078 -0.53816,0.08154 -1.10078,0.08154 -0.97846,0 -1.73677,-0.260924 -0.75016,-0.269078 -1.28832,-0.880619 -0.53815,-0.619696 -0.76646,-1.386161 -0.22831,-0.766465 -0.22831,-1.630776 0,-1.13339 0.39139,-2.12001 0.39138,-0.994774 1.28831,-1.647085 0.89693,-0.65231 2.22601,-0.65231 0.91323,0 1.65524,0.342463 0.742,0.334309 1.1497,1.100774 0.41584,0.766465 0.41584,1.818316 0,0.195693 -0.0163,0.375079 l -6.44973,0.0082 q -0.0408,0.530002 -0.0408,0.79908 0,0.774619 0.22831,1.500315 0.22831,0.725695 0.68493,1.214928 0.46477,0.489234 1.10893,0.725696 0.64415,0.236463 1.3617,0.236463 1.09262,0 2.42985,-0.505541 z m -5.69956,-4.419405 5.79741,0.0082 q -0.008,-0.562618 -0.0652,-0.864312 -0.0571,-0.301693 -0.212,-0.619695 -0.15493,-0.318001 -0.37508,-0.54631 -0.212,-0.236463 -0.50554,-0.391387 -0.28539,-0.163077 -0.64416,-0.244616 -0.35877,-0.08154 -0.75016,-0.08154 -0.43215,0 -0.848,0.09785 -0.41585,0.09785 -0.75831,0.269078 -0.34246,0.171231 -0.64416,0.44031 -0.29354,0.260924 -0.48923,0.570771 -0.18754,0.309848 -0.29354,0.595234 -0.0978,0.277232 -0.212,0.766465 z"
         inkscape:connector-curvature="0" />
    </g>
  </g>
</svg>
